Nobel-Bold_Italic.ufo
<glyph name="exclam" format="1">
  <advance width="276"/>
  <unicode hex="0021"/>
  <outline>
    <contour>
      <point x="279" y="730" type="line"/>
      <point x="233" y="472" type="line"/>
      <point x="159" y="202" type="line"/>
      <point x="56" y="202" type="line"/>
      <point x="76" y="472" type="line"/>
      <point x="122" y="730" type="line"/>
    </contour>
    <contour>
      <point x="176" y="149" type="line"/>
      <point x="151" y="0" type="line"/>
      <point x="-6" y="0" type="line"/>
      <point x="19" y="149" type="line"/>
    </contour>
  </outline>
</glyph>
<glyph name="quotedbl" format="1">
  <advance width="444"/>
  <unicode hex="0022"/>
  <outline>
    <contour>
      <point x="459" y="730" type="line"/>
      <point x="435" y="594" type="line"/>
      <point x="381" y="452" type="line"/>
      <point x="293" y="452" type="line"/>
      <point x="289" y="594" type="line"/>
      <point x="313" y="730" type="line"/>
    </contour>
    <contour>
      <point x="253" y="730" type="line"/>
      <point x="229" y="594" type="line"/>
      <point x="175" y="452" type="line"/>
      <point x="87" y="452" type="line"/>
      <point x="83" y="594" type="line"/>
      <point x="107" y="730" type="line"/>
    </contour>
  </outline>
</glyph>
<glyph name="numbersign" format="1">
  <advance width="646"/>
  <unicode hex="0023"/>
  <outline>
    <contour>
      <point x="624" y="558" type="line"/>
      <point x="606" y="440" type="line"/>
      <point x="512" y="440" type="line"/>
      <point x="480" y="291" type="line"/>
      <point x="587" y="291" type="line"/>
      <point x="569" y="174" type="line"/>
      <point x="452" y="174" type="line"/>
      <point x="415" y="0" type="line"/>
      <point x="311" y="0" type="line"/>
      <point x="347" y="174" type="line"/>
      <point x="210" y="174" type="line"/>
      <point x="174" y="0" type="line"/>
      <point x="69" y="0" type="line"/>
      <point x="106" y="174" type="line"/>
      <point x="22" y="174" type="line"/>
      <point x="40" y="291" type="line"/>
      <point x="134" y="291" type="line"/>
      <point x="166" y="440" type="line"/>
      <point x="60" y="440" type="line"/>
      <point x="77" y="558" type="line"/>
      <point x="194" y="558" type="line"/>
      <point x="231" y="730" type="line"/>
      <point x="335" y="730" type="line"/>
      <point x="299" y="558" type="line"/>
      <point x="436" y="558" type="line"/>
      <point x="472" y="730" type="line"/>
      <point x="577" y="730" type="line"/>
      <point x="540" y="558" type="line"/>
    </contour>
    <contour>
      <point x="411" y="443" type="line"/>
      <point x="270" y="443" type="line"/>
      <point x="236" y="289" type="line"/>
      <point x="376" y="289" type="line"/>
    </contour>
  </outline>
</glyph>
<glyph name="dollar" format="1">
  <advance width="594"/>
  <unicode hex="0024"/>
  <outline>
    <contour>
      <point x="591" y="656" type="curve"/>
      <point x="513" y="550" type="line"/>
      <point x="478" y="576"/>
      <point x="432" y="598"/>
      <point x="381" y="607" type="curve"/>
      <point x="348" y="423" type="line"/>
      <point x="462" y="376"/>
      <point x="541" y="327"/>
      <point x="541" y="220" type="curve" smooth="yes"/>
      <point x="541" y="85"/>
      <point x="438" y="9"/>
      <point x="278" y="-1" type="curve"/>
      <point x="264" y="-88" type="line"/>
      <point x="170" y="-88" type="line"/>
      <point x="187" y="2" type="line"/>
      <point x="106" y="12"/>
      <point x="33" y="43"/>
      <point x="-21" y="87" type="curve"/>
      <point x="61" y="187" type="line"/>
      <point x="97" y="156"/>
      <point x="158" y="129"/>
      <point x="213" y="120" type="curve"/>
      <point x="247" y="317" type="line"/>
      <point x="130" y="362"/>
      <point x="62" y="419"/>
      <point x="62" y="512" type="curve" smooth="yes"/>
      <point x="62" y="636"/>
      <point x="159" y="723"/>
      <point x="314" y="730" type="curve"/>
      <point x="326" y="793" type="line"/>
      <point x="419" y="793" type="line"/>
      <point x="407" y="727" type="line"/>
      <point x="483" y="717"/>
      <point x="544" y="691"/>
    </contour>
    <contour>
      <point x="298" y="611" type="line"/>
      <point x="235" y="605"/>
      <point x="204" y="575"/>
      <point x="204" y="532" type="curve" smooth="yes"/>
      <point x="204" y="500"/>
      <point x="224" y="479"/>
      <point x="271" y="456" type="curve"/>
    </contour>
    <contour>
      <point x="400" y="199" type="curve" smooth="yes"/>
      <point x="400" y="236"/>
      <point x="373" y="265"/>
      <point x="324" y="286" type="curve"/>
      <point x="294" y="119" type="line"/>
      <point x="366" y="124"/>
      <point x="400" y="150"/>
    </contour>
  </outline>
</glyph>
<glyph name="percent" format="1">
  <advance width="778"/>
  <unicode hex="0025"/>
  <outline>
    <contour>
      <point x="371" y="589" type="curve" smooth="yes"/>
      <point x="371" y="454"/>
      <point x="284" y="357"/>
      <point x="188" y="356" type="curve" smooth="yes"/>
      <point x="111" y="355"/>
      <point x="48" y="407"/>
      <point x="48" y="513" type="curve" smooth="yes"/>
      <point x="48" y="637"/>
      <point x="133" y="742"/>
      <point x="230" y="742" type="curve" smooth="yes"/>
      <point x="316" y="742"/>
      <point x="371" y="685"/>
    </contour>
    <contour>
      <point x="738" y="730" type="line"/>
      <point x="162" y="0" type="line"/>
      <point x="40" y="0" type="line"/>
      <point x="616" y="730" type="line"/>
    </contour>
    <contour>
      <point x="729" y="220" type="curve" smooth="yes"/>
      <point x="729" y="86"/>
      <point x="643" y="-11"/>
      <point x="547" y="-12" type="curve" smooth="yes"/>
      <point x="470" y="-12"/>
      <point x="406" y="38"/>
      <point x="406" y="145" type="curve" smooth="yes"/>
      <point x="406" y="268"/>
      <point x="492" y="373"/>
      <point x="588" y="373" type="curve" smooth="yes"/>
      <point x="675" y="373"/>
      <point x="729" y="316"/>
    </contour>
    <contour>
      <point x="269" y="581" type="curve" smooth="yes"/>
      <point x="269" y="633"/>
      <point x="252" y="659"/>
      <point x="224" y="659" type="curve" smooth="yes"/>
      <point x="182" y="659"/>
      <point x="149" y="587"/>
      <point x="149" y="518" type="curve" smooth="yes"/>
      <point x="149" y="467"/>
      <point x="164" y="439"/>
      <point x="193" y="439" type="curve" smooth="yes"/>
      <point x="240" y="439"/>
      <point x="269" y="514"/>
    </contour>
    <contour>
      <point x="627" y="212" type="curve" smooth="yes"/>
      <point x="627" y="264"/>
      <point x="611" y="290"/>
      <point x="583" y="290" type="curve" smooth="yes"/>
      <point x="540" y="290"/>
      <point x="507" y="219"/>
      <point x="507" y="149" type="curve" smooth="yes"/>
      <point x="507" y="98"/>
      <point x="523" y="70"/>
      <point x="552" y="70" type="curve" smooth="yes"/>
      <point x="599" y="70"/>
      <point x="627" y="145"/>
    </contour>
  </outline>
</glyph>
<glyph name="ampersand" format="1">
  <advance width="660"/>
  <unicode hex="0026"/>
  <outline>
    <contour>
      <point x="612" y="213" type="line"/>
      <point x="579" y="179"/>
      <point x="545" y="148"/>
      <point x="510" y="119" type="curve"/>
      <point x="588" y="0" type="line"/>
      <point x="425" y="0" type="line"/>
      <point x="395" y="47" type="line"/>
      <point x="330" y="11"/>
      <point x="262" y="-10"/>
      <point x="196" y="-10" type="curve" smooth="yes"/>
      <point x="65" y="-10"/>
      <point x="-17" y="59"/>
      <point x="-17" y="161" type="curve" smooth="yes"/>
      <point x="-17" y="283"/>
      <point x="80" y="352"/>
      <point x="171" y="403" type="curve"/>
      <point x="166" y="410" type="line" smooth="yes"/>
      <point x="136" y="452"/>
      <point x="119" y="496"/>
      <point x="119" y="542" type="curve" smooth="yes"/>
      <point x="119" y="660"/>
      <point x="227" y="742"/>
      <point x="339" y="742" type="curve" smooth="yes"/>
      <point x="438" y="742"/>
      <point x="510" y="690"/>
      <point x="510" y="596" type="curve" smooth="yes"/>
      <point x="510" y="494"/>
      <point x="429" y="434"/>
      <point x="339" y="382" type="curve"/>
      <point x="445" y="219" type="line"/>
      <point x="476" y="246"/>
      <point x="507" y="275"/>
      <point x="535" y="305" type="curve"/>
    </contour>
    <contour>
      <point x="386" y="585" type="curve" smooth="yes"/>
      <point x="386" y="622"/>
      <point x="366" y="642"/>
      <point x="329" y="642" type="curve" smooth="yes"/>
      <point x="295" y="642"/>
      <point x="250" y="607"/>
      <point x="250" y="557" type="curve" smooth="yes"/>
      <point x="250" y="527"/>
      <point x="259" y="501"/>
      <point x="283" y="468" type="curve" smooth="yes"/>
      <point x="288" y="461" type="line"/>
      <point x="343" y="495"/>
      <point x="386" y="532"/>
    </contour>
    <contour>
      <point x="335" y="143" type="curve"/>
      <point x="225" y="316" type="line"/>
      <point x="174" y="281"/>
      <point x="136" y="243"/>
      <point x="136" y="191" type="curve" smooth="yes"/>
      <point x="136" y="144"/>
      <point x="170" y="110"/>
      <point x="232" y="110" type="curve" smooth="yes"/>
      <point x="265" y="110"/>
      <point x="299" y="122"/>
    </contour>
  </outline>
</glyph>
<glyph name="quotesingle" format="1">
  <advance width="239"/>
  <unicode hex="0027"/>
  <outline>
    <contour>
      <point x="253" y="730" type="line"/>
      <point x="229" y="594" type="line"/>
      <point x="174" y="452" type="line"/>
      <point x="87" y="452" type="line"/>
      <point x="83" y="594" type="line"/>
      <point x="107" y="730" type="line"/>
    </contour>
  </outline>
</glyph>
<glyph name="parenleft" format="1">
  <advance width="362"/>
  <unicode hex="0028"/>
  <outline>
    <contour>
      <point x="402" y="746" type="curve"/>
      <point x="383" y="637" type="line"/>
      <point x="254" y="545"/>
      <point x="172" y="370"/>
      <point x="172" y="165" type="curve" smooth="yes"/>
      <point x="172" y="75"/>
      <point x="195" y="1"/>
      <point x="259" y="-69" type="curve"/>
      <point x="240" y="-179" type="line"/>
      <point x="110" y="-117"/>
      <point x="16" y="21"/>
      <point x="16" y="193" type="curve" smooth="yes"/>
      <point x="16" y="490"/>
      <point x="221" y="681"/>
    </contour>
  </outline>
</glyph>
<glyph name="parenright" format="1">
  <advance width="362"/>
  <unicode hex="0029"/>
  <outline>
    <contour>
      <point x="323" y="373" type="curve" smooth="yes"/>
      <point x="323" y="77"/>
      <point x="119" y="-114"/>
      <point x="-63" y="-179" type="curve"/>
      <point x="-44" y="-70" type="line"/>
      <point x="86" y="22"/>
      <point x="168" y="197"/>
      <point x="168" y="401" type="curve" smooth="yes"/>
      <point x="168" y="491"/>
      <point x="145" y="565"/>
      <point x="81" y="636" type="curve"/>
      <point x="100" y="746" type="line"/>
      <point x="229" y="684"/>
      <point x="323" y="545"/>
    </contour>
  </outline>
</glyph>
<glyph name="asterisk" format="1">
  <advance width="422"/>
  <unicode hex="002A"/>
  <outline>
    <contour>
      <point x="49" y="534" type="line"/>
      <point x="155" y="590" type="line"/>
      <point x="103" y="695" type="line"/>
      <point x="153" y="733" type="line"/>
      <point x="238" y="649" type="line"/>
      <point x="322" y="732" type="line"/>
      <point x="373" y="696" type="line"/>
      <point x="320" y="589" type="line"/>
      <point x="425" y="535" type="line"/>
      <point x="406" y="475" type="line"/>
      <point x="288" y="493" type="line"/>
      <point x="269" y="376" type="line"/>
      <point x="207" y="376" type="line"/>
      <point x="189" y="493" type="line"/>
      <point x="71" y="475" type="line"/>
    </contour>
  </outline>
</glyph>
<glyph name="plus" format="1">
  <advance width="498"/>
  <unicode hex="002B"/>
  <outline>
    <contour>
      <point x="469" y="396" type="line"/>
      <point x="445" y="266" type="line"/>
      <point x="295" y="266" type="line"/>
      <point x="268" y="108" type="line"/>
      <point x="134" y="108" type="line"/>
      <point x="162" y="266" type="line"/>
      <point x="12" y="266" type="line"/>
      <point x="35" y="396" type="line"/>
      <point x="186" y="396" type="line"/>
      <point x="213" y="554" type="line"/>
      <point x="346" y="554" type="line"/>
      <point x="319" y="396" type="line"/>
    </contour>
  </outline>
</glyph>
<glyph name="comma" format="1">
  <advance width="231"/>
  <unicode hex="002C"/>
  <outline>
    <contour>
      <point x="154" y="152" type="line"/>
      <point x="137" y="50" type="line" smooth="yes"/>
      <point x="121" y="-48"/>
      <point x="65" y="-113"/>
      <point x="8" y="-151" type="curve"/>
      <point x="-72" y="-118" type="line"/>
      <point x="-49" y="-91"/>
      <point x="-29" y="-47"/>
      <point x="-20" y="6" type="curve" smooth="yes"/>
      <point x="5" y="152" type="line"/>
    </contour>
  </outline>
</glyph>
<glyph name="period" format="1">
  <advance width="231"/>
  <unicode hex="002E"/>
  <outline>
    <contour>
      <point x="152" y="152" type="line"/>
      <point x="125" y="0" type="line"/>
      <point x="-23" y="0" type="line"/>
      <point x="4" y="152" type="line"/>
    </contour>
  </outline>
</glyph>
<glyph name="slash" format="1">
  <advance width="495"/>
  <unicode hex="002F"/>
  <outline>
    <contour>
      <point x="484" y="730" type="line"/>
      <point x="98" y="0" type="line"/>
      <point x="-45" y="0" type="line"/>
      <point x="343" y="730" type="line"/>
    </contour>
  </outline>
</glyph>
<glyph name="zero" format="1">
  <advance width="634"/>
  <unicode hex="0030"/>
  <outline>
    <contour>
      <point x="613" y="461" type="curve" smooth="yes"/>
      <point x="613" y="217"/>
      <point x="488" y="-13"/>
      <point x="267" y="-13" type="curve" smooth="yes"/>
      <point x="111" y="-13"/>
      <point x="27" y="100"/>
      <point x="27" y="281" type="curve" smooth="yes"/>
      <point x="27" y="538"/>
      <point x="169" y="742"/>
      <point x="372" y="742" type="curve" smooth="yes"/>
      <point x="536" y="742"/>
      <point x="613" y="621"/>
    </contour>
    <contour>
      <point x="456" y="454" type="curve" smooth="yes"/>
      <point x="456" y="558"/>
      <point x="425" y="613"/>
      <point x="356" y="613" type="curve" smooth="yes"/>
      <point x="253" y="613"/>
      <point x="183" y="456"/>
      <point x="183" y="287" type="curve" smooth="yes"/>
      <point x="183" y="188"/>
      <point x="214" y="118"/>
      <point x="283" y="118" type="curve" smooth="yes"/>
      <point x="391" y="118"/>
      <point x="456" y="283"/>
    </contour>
  </outline>
</glyph>
<glyph name="one" format="1">
  <advance width="375"/>
  <unicode hex="0031"/>
  <outline>
    <contour>
      <point x="375" y="730" type="line"/>
      <point x="246" y="0" type="line"/>
      <point x="94" y="0" type="line"/>
      <point x="187" y="525" type="line"/>
      <point x="153" y="498"/>
      <point x="94" y="479"/>
      <point x="38" y="474" type="curve"/>
      <point x="61" y="599" type="line"/>
      <point x="132" y="609"/>
      <point x="202" y="644"/>
      <point x="259" y="730" type="curve"/>
    </contour>
  </outline>
</glyph>
<glyph name="two" format="1">
  <advance width="573"/>
  <unicode hex="0032"/>
  <outline>
    <contour>
      <point x="556" y="553" type="curve" smooth="yes"/>
      <point x="556" y="465"/>
      <point x="510" y="406"/>
      <point x="448" y="339" type="curve" smooth="yes"/>
      <point x="254" y="129" type="line"/>
      <point x="493" y="129" type="line"/>
      <point x="470" y="0" type="line"/>
      <point x="-35" y="0" type="line"/>
      <point x="329" y="401" type="line" smooth="yes"/>
      <point x="373" y="450"/>
      <point x="400" y="494"/>
      <point x="400" y="535" type="curve" smooth="yes"/>
      <point x="400" y="589"/>
      <point x="361" y="611"/>
      <point x="316" y="611" type="curve" smooth="yes"/>
      <point x="251" y="611"/>
      <point x="214" y="560"/>
      <point x="206" y="492" type="curve" smooth="yes"/>
      <point x="205" y="483" type="line"/>
      <point x="59" y="483" type="line"/>
      <point x="59" y="496" type="line"/>
      <point x="80" y="659"/>
      <point x="195" y="742"/>
      <point x="330" y="742" type="curve" smooth="yes"/>
      <point x="462" y="742"/>
      <point x="556" y="677"/>
    </contour>
  </outline>
</glyph>
<glyph name="three" format="1">
  <advance width="574"/>
  <unicode hex="0033"/>
  <outline>
    <contour>
      <point x="556" y="576" type="curve" smooth="yes"/>
      <point x="556" y="469"/>
      <point x="486" y="408"/>
      <point x="432" y="385" type="curve"/>
      <point x="489" y="360"/>
      <point x="520" y="309"/>
      <point x="520" y="248" type="curve" smooth="yes"/>
      <point x="520" y="117"/>
      <point x="418" y="-12"/>
      <point x="219" y="-12" type="curve" smooth="yes"/>
      <point x="109" y="-12"/>
      <point x="30" y="16"/>
      <point x="-23" y="59" type="curve"/>
      <point x="64" y="165" type="line"/>
      <point x="103" y="135"/>
      <point x="162" y="113"/>
      <point x="224" y="113" type="curve" smooth="yes"/>
      <point x="314" y="113"/>
      <point x="367" y="171"/>
      <point x="367" y="244" type="curve" smooth="yes"/>
      <point x="367" y="298"/>
      <point x="329" y="327"/>
      <point x="256" y="327" type="curve" smooth="yes"/>
      <point x="191" y="327" type="line"/>
      <point x="212" y="442" type="line"/>
      <point x="278" y="442" type="line" smooth="yes"/>
      <point x="346" y="442"/>
      <point x="401" y="478"/>
      <point x="401" y="545" type="curve" smooth="yes"/>
      <point x="401" y="576"/>
      <point x="382" y="616"/>
      <point x="308" y="616" type="curve" smooth="yes"/>
      <point x="245" y="616"/>
      <point x="193" y="577"/>
      <point x="162" y="537" type="curve"/>
      <point x="70" y="610" type="line"/>
      <point x="111" y="667"/>
      <point x="193" y="742"/>
      <point x="338" y="742" type="curve" smooth="yes"/>
      <point x="480" y="742"/>
      <point x="556" y="667"/>
    </contour>
  </outline>
</glyph>
<glyph name="four" format="1">
  <advance width="593"/>
  <unicode hex="0034"/>
  <outline>
    <contour>
      <point x="569" y="278" type="line"/>
      <point x="549" y="164" type="line"/>
      <point x="455" y="164" type="line"/>
      <point x="426" y="0" type="line"/>
      <point x="280" y="0" type="line"/>
      <point x="309" y="164" type="line"/>
      <point x="-13" y="164" type="line"/>
      <point x="4" y="260" type="line"/>
      <point x="413" y="730" type="line"/>
      <point x="555" y="730" type="line"/>
      <point x="475" y="278" type="line"/>
    </contour>
    <contour>
      <point x="375" y="537" type="line"/>
      <point x="159" y="278" type="line"/>
      <point x="329" y="278" type="line"/>
    </contour>
  </outline>
</glyph>
<glyph name="five" format="1">
  <advance width="578"/>
  <unicode hex="0035"/>
  <outline>
    <contour>
      <point x="566" y="730" type="line"/>
      <point x="544" y="605" type="line"/>
      <point x="258" y="605" type="line"/>
      <point x="222" y="463" type="line"/>
      <point x="253" y="483"/>
      <point x="284" y="497"/>
      <point x="339" y="497" type="curve" smooth="yes"/>
      <point x="446" y="497"/>
      <point x="538" y="432"/>
      <point x="538" y="309" type="curve" smooth="yes"/>
      <point x="538" y="124"/>
      <point x="405" y="-12"/>
      <point x="221" y="-12" type="curve" smooth="yes"/>
      <point x="113" y="-12"/>
      <point x="27" y="36"/>
      <point x="-22" y="88" type="curve"/>
      <point x="70" y="189" type="line"/>
      <point x="105" y="152"/>
      <point x="158" y="116"/>
      <point x="229" y="116" type="curve" smooth="yes"/>
      <point x="321" y="116"/>
      <point x="384" y="197"/>
      <point x="384" y="282" type="curve" smooth="yes"/>
      <point x="384" y="339"/>
      <point x="346" y="379"/>
      <point x="279" y="379" type="curve" smooth="yes"/>
      <point x="229" y="379"/>
      <point x="182" y="354"/>
      <point x="146" y="315" type="curve"/>
      <point x="57" y="339" type="line"/>
      <point x="161" y="730" type="line"/>
    </contour>
  </outline>
</glyph>
<glyph name="six" format="1">
  <advance width="595"/>
  <unicode hex="0036"/>
  <outline>
    <contour>
      <point x="557" y="275" type="curve" smooth="yes"/>
      <point x="557" y="98"/>
      <point x="415" y="-12"/>
      <point x="257" y="-12" type="curve" smooth="yes"/>
      <point x="114" y="-12"/>
      <point x="16" y="73"/>
      <point x="16" y="220" type="curve" smooth="yes"/>
      <point x="16" y="392"/>
      <point x="141" y="564"/>
      <point x="347" y="741" type="curve"/>
      <point x="464" y="680" type="line"/>
      <point x="361" y="597"/>
      <point x="263" y="491"/>
      <point x="229" y="434" type="curve"/>
      <point x="265" y="460"/>
      <point x="309" y="473"/>
      <point x="356" y="473" type="curve" smooth="yes"/>
      <point x="451" y="473"/>
      <point x="557" y="412"/>
    </contour>
    <contour>
      <point x="403" y="254" type="curve" smooth="yes"/>
      <point x="403" y="326"/>
      <point x="367" y="363"/>
      <point x="304" y="363" type="curve" smooth="yes"/>
      <point x="227" y="363"/>
      <point x="164" y="302"/>
      <point x="164" y="214" type="curve" smooth="yes"/>
      <point x="164" y="143"/>
      <point x="212" y="109"/>
      <point x="273" y="109" type="curve" smooth="yes"/>
      <point x="342" y="109"/>
      <point x="403" y="171"/>
    </contour>
  </outline>
</glyph>
<glyph name="seven" format="1">
  <advance width="572"/>
  <unicode hex="0037"/>
  <outline>
    <contour>
      <point x="624" y="730" type="line"/>
      <point x="176" y="0" type="line"/>
      <point x="5" y="0" type="line"/>
      <point x="380" y="601" type="line"/>
      <point x="85" y="601" type="line"/>
      <point x="108" y="730" type="line"/>
    </contour>
  </outline>
</glyph>
<glyph name="eight" format="1">
  <advance width="620"/>
  <unicode hex="0038"/>
  <outline>
    <contour>
      <point x="596" y="564" type="curve" smooth="yes"/>
      <point x="596" y="466"/>
      <point x="534" y="409"/>
      <point x="475" y="382" type="curve"/>
      <point x="526" y="354"/>
      <point x="565" y="306"/>
      <point x="565" y="235" type="curve" smooth="yes"/>
      <point x="565" y="96"/>
      <point x="448" y="-12"/>
      <point x="267" y="-12" type="curve" smooth="yes"/>
      <point x="120" y="-12"/>
      <point x="7" y="56"/>
      <point x="7" y="176" type="curve" smooth="yes"/>
      <point x="7" y="300"/>
      <point x="91" y="367"/>
      <point x="163" y="393" type="curve"/>
      <point x="124" y="418"/>
      <point x="93" y="461"/>
      <point x="93" y="513" type="curve" smooth="yes"/>
      <point x="93" y="632"/>
      <point x="196" y="742"/>
      <point x="367" y="742" type="curve" smooth="yes"/>
      <point x="509" y="742"/>
      <point x="596" y="667"/>
    </contour>
    <contour>
      <point x="449" y="550" type="curve" smooth="yes"/>
      <point x="449" y="600"/>
      <point x="416" y="628"/>
      <point x="357" y="628" type="curve" smooth="yes"/>
      <point x="288" y="628"/>
      <point x="236" y="577"/>
      <point x="236" y="512" type="curve" smooth="yes"/>
      <point x="236" y="458"/>
      <point x="276" y="433"/>
      <point x="330" y="433" type="curve" smooth="yes"/>
      <point x="404" y="433"/>
      <point x="449" y="488"/>
    </contour>
    <contour>
      <point x="419" y="234" type="curve" smooth="yes"/>
      <point x="419" y="290"/>
      <point x="372" y="321"/>
      <point x="301" y="321" type="curve" smooth="yes"/>
      <point x="215" y="321"/>
      <point x="156" y="268"/>
      <point x="156" y="199" type="curve" smooth="yes"/>
      <point x="156" y="139"/>
      <point x="198" y="106"/>
      <point x="273" y="106" type="curve" smooth="yes"/>
      <point x="360" y="106"/>
      <point x="419" y="158"/>
    </contour>
  </outline>
</glyph>
<glyph name="nine" format="1">
  <advance width="597"/>
  <unicode hex="0039"/>
  <outline>
    <contour>
      <point x="587" y="512" type="curve" smooth="yes"/>
      <point x="587" y="328"/>
      <point x="434" y="137"/>
      <point x="241" y="-22" type="curve"/>
      <point x="142" y="69" type="line"/>
      <point x="222" y="127"/>
      <point x="329" y="233"/>
      <point x="366" y="287" type="curve"/>
      <point x="329" y="260"/>
      <point x="288" y="249"/>
      <point x="245" y="249" type="curve" smooth="yes"/>
      <point x="125" y="249"/>
      <point x="40" y="323"/>
      <point x="40" y="457" type="curve" smooth="yes"/>
      <point x="40" y="609"/>
      <point x="167" y="742"/>
      <point x="342" y="742" type="curve" smooth="yes"/>
      <point x="492" y="742"/>
      <point x="587" y="654"/>
    </contour>
    <contour>
      <point x="433" y="513" type="curve" smooth="yes"/>
      <point x="433" y="582"/>
      <point x="397" y="619"/>
      <point x="331" y="619" type="curve" smooth="yes"/>
      <point x="247" y="619"/>
      <point x="196" y="544"/>
      <point x="196" y="472" type="curve" smooth="yes"/>
      <point x="196" y="402"/>
      <point x="231" y="362"/>
      <point x="296" y="362" type="curve" smooth="yes"/>
      <point x="372" y="362"/>
      <point x="433" y="425"/>
    </contour>
  </outline>
</glyph>
<glyph name="colon" format="1">
  <advance width="231"/>
  <unicode hex="003A"/>
  <outline>
    <contour>
      <point x="202" y="435" type="line"/>
      <point x="175" y="288" type="line"/>
      <point x="27" y="288" type="line"/>
      <point x="54" y="435" type="line"/>
    </contour>
    <contour>
      <point x="152" y="147" type="line"/>
      <point x="125" y="0" type="line"/>
      <point x="-23" y="0" type="line"/>
      <point x="3" y="147" type="line"/>
    </contour>
  </outline>
</glyph>
<glyph name="semicolon" format="1">
  <advance width="231"/>
  <unicode hex="003B"/>
  <outline>
    <contour>
      <point x="202" y="435" type="line"/>
      <point x="175" y="288" type="line"/>
      <point x="27" y="288" type="line"/>
      <point x="54" y="435" type="line"/>
    </contour>
    <contour>
      <point x="152" y="147" type="line"/>
      <point x="135" y="50" type="line" smooth="yes"/>
      <point x="118" y="-48"/>
      <point x="63" y="-113"/>
      <point x="6" y="-151" type="curve"/>
      <point x="-74" y="-118" type="line"/>
      <point x="-51" y="-91"/>
      <point x="-31" y="-47"/>
      <point x="-22" y="6" type="curve" smooth="yes"/>
      <point x="3" y="147" type="line"/>
    </contour>
  </outline>
</glyph>
<glyph name="less" format="1">
  <advance width="410"/>
  <unicode hex="003C"/>
  <outline>
    <contour>
      <point x="392" y="568" type="line"/>
      <point x="367" y="426" type="line"/>
      <point x="160" y="323" type="line"/>
      <point x="330" y="215" type="line"/>
      <point x="306" y="79" type="line"/>
      <point x="25" y="268" type="line"/>
      <point x="44" y="381" type="line"/>
    </contour>
  </outline>
</glyph>
<glyph name="equal" format="1">
  <advance width="515"/>
  <unicode hex="003D"/>
  <outline>
    <contour>
      <point x="487" y="505" type="line"/>
      <point x="465" y="382" type="line"/>
      <point x="58" y="382" type="line"/>
      <point x="79" y="505" type="line"/>
    </contour>
    <contour>
      <point x="448" y="284" type="line"/>
      <point x="426" y="161" type="line"/>
      <point x="19" y="161" type="line"/>
      <point x="40" y="284" type="line"/>
    </contour>
  </outline>
</glyph>
<glyph name="greater" format="1">
  <advance width="410"/>
  <unicode hex="003E"/>
  <outline>
    <contour>
      <point x="368" y="379" type="line"/>
      <point x="349" y="266" type="line"/>
      <point x="1" y="79" type="line"/>
      <point x="26" y="221" type="line"/>
      <point x="233" y="324" type="line"/>
      <point x="63" y="432" type="line"/>
      <point x="87" y="568" type="line"/>
    </contour>
  </outline>
</glyph>
<glyph name="question" format="1">
  <advance width="465"/>
  <unicode hex="003F"/>
  <outline>
    <contour>
      <point x="476" y="586" type="curve" smooth="yes"/>
      <point x="476" y="491"/>
      <point x="432" y="440"/>
      <point x="345" y="353" type="curve" smooth="yes"/>
      <point x="291" y="300"/>
      <point x="268" y="260"/>
      <point x="261" y="205" type="curve"/>
      <point x="261" y="204" type="line"/>
      <point x="124" y="204" type="line"/>
      <point x="125" y="213" type="line" smooth="yes"/>
      <point x="135" y="301"/>
      <point x="176" y="359"/>
      <point x="226" y="411" type="curve" smooth="yes"/>
      <point x="287" y="473"/>
      <point x="316" y="506"/>
      <point x="316" y="549" type="curve" smooth="yes"/>
      <point x="316" y="592"/>
      <point x="293" y="614"/>
      <point x="251" y="614" type="curve" smooth="yes"/>
      <point x="208" y="614"/>
      <point x="162" y="587"/>
      <point x="118" y="547" type="curve"/>
      <point x="56" y="657" type="line"/>
      <point x="118" y="713"/>
      <point x="200" y="742"/>
      <point x="278" y="742" type="curve" smooth="yes"/>
      <point x="393" y="742"/>
      <point x="476" y="689"/>
    </contour>
    <contour>
      <point x="261" y="149" type="line"/>
      <point x="235" y="0" type="line"/>
      <point x="78" y="0" type="line"/>
      <point x="104" y="149" type="line"/>
    </contour>
  </outline>
</glyph>
<glyph name="at" format="1">
  <advance width="844"/>
  <unicode hex="0040"/>
  <outline>
    <contour>
      <point x="799" y="395" type="curve" smooth="yes"/>
      <point x="799" y="226"/>
      <point x="704" y="156"/>
      <point x="627" y="156" type="curve" smooth="yes"/>
      <point x="569" y="156"/>
      <point x="537" y="179"/>
      <point x="517" y="211" type="curve"/>
      <point x="483" y="180"/>
      <point x="431" y="156"/>
      <point x="365" y="156" type="curve" smooth="yes"/>
      <point x="275" y="156"/>
      <point x="220" y="210"/>
      <point x="220" y="286" type="curve" smooth="yes"/>
      <point x="220" y="380"/>
      <point x="304" y="435"/>
      <point x="442" y="435" type="curve" smooth="yes"/>
      <point x="500" y="435" type="line"/>
      <point x="500" y="437" type="line" smooth="yes"/>
      <point x="500" y="488"/>
      <point x="472" y="503"/>
      <point x="415" y="503" type="curve" smooth="yes"/>
      <point x="371" y="503"/>
      <point x="327" y="494"/>
      <point x="291" y="476" type="curve"/>
      <point x="259" y="552" type="line"/>
      <point x="303" y="577"/>
      <point x="364" y="589"/>
      <point x="430" y="589" type="curve" smooth="yes"/>
      <point x="546" y="589"/>
      <point x="614" y="554"/>
      <point x="614" y="436" type="curve" smooth="yes"/>
      <point x="614" y="265" type="line" smooth="yes"/>
      <point x="614" y="234"/>
      <point x="627" y="222"/>
      <point x="655" y="222" type="curve" smooth="yes"/>
      <point x="692" y="222"/>
      <point x="741" y="270"/>
      <point x="741" y="391" type="curve" smooth="yes"/>
      <point x="741" y="551"/>
      <point x="622" y="685"/>
      <point x="422" y="685" type="curve" smooth="yes"/>
      <point x="243" y="685"/>
      <point x="104" y="545"/>
      <point x="104" y="363" type="curve" smooth="yes"/>
      <point x="104" y="182"/>
      <point x="246" y="42"/>
      <point x="422" y="42" type="curve" smooth="yes"/>
      <point x="460" y="42"/>
      <point x="505" y="47"/>
      <point x="553" y="70" type="curve"/>
      <point x="574" y="21" type="line"/>
      <point x="519" y="-4"/>
      <point x="468" y="-12"/>
      <point x="422" y="-12" type="curve" smooth="yes"/>
      <point x="214" y="-12"/>
      <point x="45" y="157"/>
      <point x="45" y="365" type="curve" smooth="yes"/>
      <point x="45" y="573"/>
      <point x="214" y="742"/>
      <point x="422" y="742" type="curve" smooth="yes"/>
      <point x="645" y="742"/>
      <point x="799" y="587"/>
    </contour>
    <contour>
      <point x="500" y="278" type="curve"/>
      <point x="500" y="365" type="line"/>
      <point x="442" y="365" type="line" smooth="yes"/>
      <point x="369" y="365"/>
      <point x="336" y="339"/>
      <point x="336" y="295" type="curve" smooth="yes"/>
      <point x="336" y="263"/>
      <point x="352" y="239"/>
      <point x="408" y="239" type="curve" smooth="yes"/>
      <point x="439" y="239"/>
      <point x="477" y="254"/>
    </contour>
  </outline>
</glyph>
<glyph name="A" format="1">
  <advance width="712"/>
  <unicode hex="0041"/>
  <outline>
    <contour>
      <point x="629" y="0" type="line"/>
      <point x="466" y="0" type="line"/>
      <point x="434" y="193" type="line"/>
      <point x="213" y="193" type="line"/>
      <point x="111" y="0" type="line"/>
      <point x="-46" y="0" type="line"/>
      <point x="346" y="730" type="line"/>
      <point x="493" y="730" type="line"/>
    </contour>
    <contour>
      <point x="415" y="319" type="line"/>
      <point x="384" y="538" type="line"/>
      <point x="276" y="319" type="line"/>
    </contour>
  </outline>
</glyph>
<glyph name="B" format="1">
  <advance width="594"/>
  <unicode hex="0042"/>
  <outline>
    <contour>
      <point x="560" y="568" type="curve" smooth="yes"/>
      <point x="560" y="469"/>
      <point x="498" y="400"/>
      <point x="431" y="373" type="curve"/>
      <point x="484" y="362"/>
      <point x="539" y="313"/>
      <point x="539" y="230" type="curve" smooth="yes"/>
      <point x="539" y="103"/>
      <point x="432" y="0"/>
      <point x="258" y="0" type="curve" smooth="yes"/>
      <point x="-1" y="0" type="line"/>
      <point x="128" y="730" type="line"/>
      <point x="362" y="730" type="line" smooth="yes"/>
      <point x="491" y="730"/>
      <point x="560" y="664"/>
    </contour>
    <contour>
      <point x="411" y="536" type="curve" smooth="yes"/>
      <point x="411" y="589"/>
      <point x="374" y="610"/>
      <point x="307" y="610" type="curve" smooth="yes"/>
      <point x="257" y="610" type="line"/>
      <point x="223" y="414" type="line"/>
      <point x="268" y="414" type="line" smooth="yes"/>
      <point x="363" y="414"/>
      <point x="411" y="470"/>
    </contour>
    <contour>
      <point x="392" y="233" type="curve" smooth="yes"/>
      <point x="392" y="281"/>
      <point x="358" y="308"/>
      <point x="294" y="308" type="curve" smooth="yes"/>
      <point x="204" y="308" type="line"/>
      <point x="172" y="120" type="line"/>
      <point x="256" y="120" type="line" smooth="yes"/>
      <point x="343" y="120"/>
      <point x="392" y="167"/>
    </contour>
  </outline>
</glyph>
<glyph name="C" format="1">
  <advance width="698"/>
  <unicode hex="0043"/>
  <outline>
    <contour>
      <point x="702" y="631" type="curve"/>
      <point x="593" y="530" type="line"/>
      <point x="568" y="563"/>
      <point x="525" y="604"/>
      <point x="436" y="604" type="curve" smooth="yes"/>
      <point x="288" y="604"/>
      <point x="189" y="456"/>
      <point x="189" y="321" type="curve" smooth="yes"/>
      <point x="189" y="207"/>
      <point x="253" y="126"/>
      <point x="374" y="126" type="curve" smooth="yes"/>
      <point x="436" y="126"/>
      <point x="492" y="151"/>
      <point x="550" y="205" type="curve"/>
      <point x="624" y="99" type="line"/>
      <point x="552" y="34"/>
      <point x="460" y="-12"/>
      <point x="349" y="-12" type="curve" smooth="yes"/>
      <point x="150" y="-12"/>
      <point x="29" y="120"/>
      <point x="29" y="302" type="curve" smooth="yes"/>
      <point x="29" y="557"/>
      <point x="229" y="742"/>
      <point x="457" y="742" type="curve" smooth="yes"/>
      <point x="587" y="742"/>
      <point x="654" y="687"/>
    </contour>
  </outline>
</glyph>
<glyph name="D" format="1">
  <advance width="710"/>
  <unicode hex="0044"/>
  <outline>
    <contour>
      <point x="680" y="444" type="curve" smooth="yes"/>
      <point x="680" y="168"/>
      <point x="476" y="0"/>
      <point x="222" y="0" type="curve" smooth="yes"/>
      <point x="-1" y="0" type="line"/>
      <point x="128" y="730" type="line"/>
      <point x="347" y="730" type="line" smooth="yes"/>
      <point x="542" y="730"/>
      <point x="680" y="637"/>
    </contour>
    <contour>
      <point x="521" y="418" type="curve" smooth="yes"/>
      <point x="521" y="542"/>
      <point x="454" y="600"/>
      <point x="325" y="600" type="curve" smooth="yes"/>
      <point x="260" y="600" type="line"/>
      <point x="176" y="130" type="line"/>
      <point x="233" y="130" type="line" smooth="yes"/>
      <point x="409" y="130"/>
      <point x="521" y="265"/>
    </contour>
  </outline>
</glyph>
<glyph name="E" format="1">
  <advance width="537"/>
  <unicode hex="0045"/>
  <outline>
    <contour>
      <point x="540" y="730" type="line"/>
      <point x="517" y="601" type="line"/>
      <point x="258" y="601" type="line"/>
      <point x="227" y="425" type="line"/>
      <point x="468" y="425" type="line"/>
      <point x="445" y="296" type="line"/>
      <point x="204" y="296" type="line"/>
      <point x="175" y="129" type="line"/>
      <point x="449" y="129" type="line"/>
      <point x="426" y="0" type="line"/>
      <point x="-1" y="0" type="line"/>
      <point x="128" y="730" type="line"/>
    </contour>
  </outline>
</glyph>
<glyph name="F" format="1">
  <advance width="485"/>
  <unicode hex="0046"/>
  <outline>
    <contour>
      <point x="505" y="730" type="line"/>
      <point x="482" y="600" type="line"/>
      <point x="258" y="600" type="line"/>
      <point x="226" y="419" type="line"/>
      <point x="435" y="419" type="line"/>
      <point x="412" y="290" type="line"/>
      <point x="203" y="290" type="line"/>
      <point x="152" y="0" type="line"/>
      <point x="-1" y="0" type="line"/>
      <point x="128" y="730" type="line"/>
    </contour>
  </outline>
</glyph>
<glyph name="G" format="1">
  <advance width="783"/>
  <unicode hex="0047"/>
  <outline>
    <contour>
      <point x="757" y="367" type="line"/>
      <point x="729" y="138"/>
      <point x="574" y="-12"/>
      <point x="355" y="-12" type="curve" smooth="yes"/>
      <point x="158" y="-12"/>
      <point x="29" y="116"/>
      <point x="29" y="301" type="curve" smooth="yes"/>
      <point x="29" y="571"/>
      <point x="244" y="742"/>
      <point x="465" y="742" type="curve" smooth="yes"/>
      <point x="595" y="742"/>
      <point x="669" y="694"/>
      <point x="724" y="629" type="curve"/>
      <point x="610" y="530" type="line"/>
      <point x="575" y="572"/>
      <point x="526" y="604"/>
      <point x="443" y="604" type="curve" smooth="yes"/>
      <point x="283" y="604"/>
      <point x="189" y="451"/>
      <point x="189" y="320" type="curve" smooth="yes"/>
      <point x="189" y="196"/>
      <point x="255" y="117"/>
      <point x="377" y="117" type="curve" smooth="yes"/>
      <point x="464" y="117"/>
      <point x="539" y="170"/>
      <point x="573" y="239" type="curve"/>
      <point x="376" y="239" type="line"/>
      <point x="399" y="367" type="line"/>
    </contour>
  </outline>
</glyph>
<glyph name="H" format="1">
  <advance width="702"/>
  <unicode hex="0048"/>
  <outline>
    <contour>
      <point x="703" y="730" type="line"/>
      <point x="574" y="0" type="line"/>
      <point x="417" y="0" type="line"/>
      <point x="467" y="292" type="line"/>
      <point x="207" y="292" type="line"/>
      <point x="157" y="0" type="line"/>
      <point x="-1" y="0" type="line"/>
      <point x="128" y="730" type="line"/>
      <point x="286" y="730" type="line"/>
      <point x="232" y="430" type="line"/>
      <point x="492" y="430" type="line"/>
      <point x="546" y="730" type="line"/>
    </contour>
  </outline>
</glyph>
<glyph name="I" format="1">
  <advance width="286"/>
  <unicode hex="0049"/>
  <outline>
    <contour>
      <point x="286" y="730" type="line"/>
      <point x="157" y="0" type="line"/>
      <point x="0" y="0" type="line"/>
      <point x="129" y="730" type="line"/>
    </contour>
  </outline>
</glyph>
<glyph name="J" format="1">
  <advance width="408"/>
  <unicode hex="004A"/>
  <outline>
    <contour>
      <point x="412" y="730" type="line"/>
      <point x="326" y="246" type="line" smooth="yes"/>
      <point x="297" y="83"/>
      <point x="210" y="-7"/>
      <point x="45" y="-7" type="curve" smooth="yes"/>
      <point x="31" y="-7"/>
      <point x="-20" y="-7"/>
      <point x="-38" y="-2" type="curve"/>
      <point x="-15" y="127" type="line"/>
      <point x="-3" y="124"/>
      <point x="32" y="124"/>
      <point x="44" y="124" type="curve" smooth="yes"/>
      <point x="118" y="124"/>
      <point x="156" y="172"/>
      <point x="172" y="265" type="curve" smooth="yes"/>
      <point x="254" y="730" type="line"/>
    </contour>
  </outline>
</glyph>
<glyph name="K" format="1">
  <advance width="667"/>
  <unicode hex="004B"/>
  <outline>
    <contour>
      <point x="696" y="730" type="line"/>
      <point x="374" y="422" type="line"/>
      <point x="600" y="0" type="line"/>
      <point x="421" y="0" type="line"/>
      <point x="252" y="315" type="line"/>
      <point x="204" y="268" type="line"/>
      <point x="157" y="0" type="line"/>
      <point x="-1" y="0" type="line"/>
      <point x="128" y="730" type="line"/>
      <point x="286" y="730" type="line"/>
      <point x="239" y="465" type="line"/>
      <point x="505" y="730" type="line"/>
    </contour>
  </outline>
</glyph>
<glyph name="L" format="1">
  <advance width="494"/>
  <unicode hex="004C"/>
  <outline>
    <contour>
      <point x="427" y="130" type="line"/>
      <point x="404" y="0" type="line"/>
      <point x="-1" y="0" type="line"/>
      <point x="128" y="730" type="line"/>
      <point x="281" y="730" type="line"/>
      <point x="175" y="130" type="line"/>
    </contour>
  </outline>
</glyph>
<glyph name="M" format="1">
  <advance width="872"/>
  <unicode hex="004D"/>
  <outline>
    <contour>
      <point x="873" y="730" type="line"/>
      <point x="744" y="0" type="line"/>
      <point x="587" y="0" type="line"/>
      <point x="672" y="483" type="line"/>
      <point x="440" y="200" type="line"/>
      <point x="370" y="200" type="line"/>
      <point x="235" y="478" type="line"/>
      <point x="151" y="0" type="line"/>
      <point x="-1" y="0" type="line"/>
      <point x="128" y="730" type="line"/>
      <point x="276" y="730" type="line"/>
      <point x="438" y="395" type="line"/>
      <point x="711" y="730" type="line"/>
    </contour>
  </outline>
</glyph>
<glyph name="N" format="1">
  <advance width="738"/>
  <unicode hex="004E"/>
  <outline>
    <contour>
      <point x="739" y="730" type="line"/>
      <point x="610" y="0" type="line"/>
      <point x="485" y="0" type="line"/>
      <point x="233" y="465" type="line"/>
      <point x="151" y="0" type="line"/>
      <point x="-1" y="0" type="line"/>
      <point x="128" y="730" type="line"/>
      <point x="265" y="730" type="line"/>
      <point x="509" y="281" type="line"/>
      <point x="588" y="730" type="line"/>
    </contour>
  </outline>
</glyph>
<glyph name="O" format="1">
  <advance width="822"/>
  <unicode hex="004F"/>
  <outline>
    <contour>
      <point x="792" y="429" type="curve" smooth="yes"/>
      <point x="792" y="174"/>
      <point x="588" y="-12"/>
      <point x="363" y="-12" type="curve" smooth="yes"/>
      <point x="168" y="-12"/>
      <point x="31" y="111"/>
      <point x="31" y="305" type="curve" smooth="yes"/>
      <point x="31" y="564"/>
      <point x="235" y="742"/>
      <point x="468" y="742" type="curve" smooth="yes"/>
      <point x="674" y="742"/>
      <point x="792" y="602"/>
    </contour>
    <contour>
      <point x="633" y="411" type="curve" smooth="yes"/>
      <point x="633" y="527"/>
      <point x="572" y="607"/>
      <point x="443" y="607" type="curve" smooth="yes"/>
      <point x="289" y="607"/>
      <point x="191" y="460"/>
      <point x="191" y="323" type="curve" smooth="yes"/>
      <point x="191" y="202"/>
      <point x="259" y="124"/>
      <point x="380" y="124" type="curve" smooth="yes"/>
      <point x="518" y="124"/>
      <point x="633" y="259"/>
    </contour>
  </outline>
</glyph>
<glyph name="P" format="1">
  <advance width="585"/>
  <unicode hex="0050"/>
  <outline>
    <contour>
      <point x="592" y="545" type="curve" smooth="yes"/>
      <point x="592" y="382"/>
      <point x="458" y="272"/>
      <point x="295" y="272" type="curve" smooth="yes"/>
      <point x="203" y="272" type="line"/>
      <point x="154" y="0" type="line"/>
      <point x="-1" y="0" type="line"/>
      <point x="128" y="730" type="line"/>
      <point x="376" y="730" type="line" smooth="yes"/>
      <point x="524" y="730"/>
      <point x="592" y="645"/>
    </contour>
    <contour>
      <point x="438" y="525" type="curve" smooth="yes"/>
      <point x="438" y="575"/>
      <point x="404" y="605"/>
      <point x="331" y="605" type="curve" smooth="yes"/>
      <point x="260" y="605" type="line"/>
      <point x="224" y="398" type="line"/>
      <point x="299" y="398" type="line" smooth="yes"/>
      <point x="375" y="398"/>
      <point x="438" y="447"/>
    </contour>
  </outline>
</glyph>
<glyph name="Q" format="1">
  <advance width="822"/>
  <unicode hex="0051"/>
  <outline>
    <contour>
      <point x="792" y="428" type="curve" smooth="yes"/>
      <point x="792" y="305"/>
      <point x="741" y="199"/>
      <point x="664" y="122" type="curve"/>
      <point x="688" y="109"/>
      <point x="713" y="100"/>
      <point x="740" y="98" type="curve"/>
      <point x="644" y="-14" type="line"/>
      <point x="608" y="-4"/>
      <point x="576" y="13"/>
      <point x="549" y="35" type="curve"/>
      <point x="489" y="5"/>
      <point x="425" y="-12"/>
      <point x="360" y="-12" type="curve" smooth="yes"/>
      <point x="160" y="-12"/>
      <point x="31" y="121"/>
      <point x="31" y="303" type="curve" smooth="yes"/>
      <point x="31" y="565"/>
      <point x="236" y="742"/>
      <point x="465" y="742" type="curve" smooth="yes"/>
      <point x="666" y="742"/>
      <point x="792" y="610"/>
    </contour>
    <contour>
      <point x="633" y="413" type="curve" smooth="yes"/>
      <point x="633" y="527"/>
      <point x="570" y="607"/>
      <point x="446" y="607" type="curve" smooth="yes"/>
      <point x="289" y="607"/>
      <point x="191" y="461"/>
      <point x="191" y="325" type="curve" smooth="yes"/>
      <point x="191" y="202"/>
      <point x="259" y="122"/>
      <point x="379" y="122" type="curve" smooth="yes"/>
      <point x="406" y="122"/>
      <point x="432" y="128"/>
      <point x="455" y="138" type="curve"/>
      <point x="442" y="160"/>
      <point x="433" y="180"/>
      <point x="428" y="195" type="curve"/>
      <point x="526" y="270" type="line"/>
      <point x="532" y="252"/>
      <point x="542" y="232"/>
      <point x="556" y="213" type="curve"/>
      <point x="603" y="264"/>
      <point x="633" y="337"/>
    </contour>
  </outline>
</glyph>
<glyph name="R" format="1">
  <advance width="618"/>
  <unicode hex="0052"/>
  <outline>
    <contour>
      <point x="593" y="550" type="curve" smooth="yes"/>
      <point x="593" y="404"/>
      <point x="483" y="319"/>
      <point x="377" y="305" type="curve"/>
      <point x="547" y="0" type="line"/>
      <point x="372" y="0" type="line"/>
      <point x="207" y="305" type="line"/>
      <point x="153" y="0" type="line"/>
      <point x="-1" y="0" type="line"/>
      <point x="128" y="730" type="line"/>
      <point x="375" y="730" type="line" smooth="yes"/>
      <point x="517" y="730"/>
      <point x="593" y="647"/>
    </contour>
    <contour>
      <point x="439" y="524" type="curve" smooth="yes"/>
      <point x="439" y="569"/>
      <point x="409" y="605"/>
      <point x="334" y="605" type="curve" smooth="yes"/>
      <point x="259" y="605" type="line"/>
      <point x="222" y="396" type="line"/>
      <point x="297" y="396" type="line" smooth="yes"/>
      <point x="382" y="396"/>
      <point x="439" y="448"/>
    </contour>
  </outline>
</glyph>
<glyph name="S" format="1">
  <advance width="555"/>
  <unicode hex="0053"/>
  <outline>
    <contour>
      <point x="547" y="680" type="curve"/>
      <point x="460" y="566" type="line"/>
      <point x="421" y="598"/>
      <point x="378" y="614"/>
      <point x="334" y="614" type="curve" smooth="yes"/>
      <point x="264" y="614"/>
      <point x="233" y="575"/>
      <point x="233" y="532" type="curve" smooth="yes"/>
      <point x="233" y="490"/>
      <point x="272" y="463"/>
      <point x="337" y="430" type="curve" smooth="yes"/>
      <point x="419" y="388"/>
      <point x="488" y="334"/>
      <point x="488" y="233" type="curve" smooth="yes"/>
      <point x="488" y="90"/>
      <point x="372" y="-12"/>
      <point x="214" y="-12" type="curve" smooth="yes"/>
      <point x="123" y="-12"/>
      <point x="43" y="13"/>
      <point x="-17" y="68" type="curve"/>
      <point x="72" y="177" type="line"/>
      <point x="117" y="135"/>
      <point x="172" y="115"/>
      <point x="222" y="115" type="curve" smooth="yes"/>
      <point x="291" y="115"/>
      <point x="330" y="151"/>
      <point x="330" y="201" type="curve" smooth="yes"/>
      <point x="330" y="256"/>
      <point x="281" y="287"/>
      <point x="212" y="324" type="curve" smooth="yes"/>
      <point x="136" y="365"/>
      <point x="74" y="415"/>
      <point x="74" y="508" type="curve" smooth="yes"/>
      <point x="74" y="643"/>
      <point x="186" y="742"/>
      <point x="350" y="742" type="curve" smooth="yes"/>
      <point x="432" y="742"/>
      <point x="495" y="721"/>
    </contour>
  </outline>
</glyph>
<glyph name="T" format="1">
  <advance width="503"/>
  <unicode hex="0054"/>
  <outline>
    <contour>
      <point x="540" y="730" type="line"/>
      <point x="516" y="600" type="line"/>
      <point x="366" y="600" type="line"/>
      <point x="261" y="0" type="line"/>
      <point x="107" y="0" type="line"/>
      <point x="213" y="600" type="line"/>
      <point x="63" y="600" type="line"/>
      <point x="86" y="730" type="line"/>
    </contour>
  </outline>
</glyph>
<glyph name="U" format="1">
  <advance width="734"/>
  <unicode hex="0055"/>
  <outline>
    <contour>
      <point x="739" y="730" type="line"/>
      <point x="665" y="313" type="line" smooth="yes"/>
      <point x="629" y="108"/>
      <point x="500" y="-12"/>
      <point x="316" y="-12" type="curve" smooth="yes"/>
      <point x="130" y="-12"/>
      <point x="12" y="103"/>
      <point x="49" y="313" type="curve" smooth="yes"/>
      <point x="123" y="730" type="line"/>
      <point x="281" y="730" type="line"/>
      <point x="206" y="302" type="line" smooth="yes"/>
      <point x="185" y="182"/>
      <point x="241" y="121"/>
      <point x="331" y="121" type="curve" smooth="yes"/>
      <point x="424" y="121"/>
      <point x="482" y="162"/>
      <point x="507" y="302" type="curve" smooth="yes"/>
      <point x="582" y="730" type="line"/>
    </contour>
  </outline>
</glyph>
<glyph name="V" format="1">
  <advance width="650"/>
  <unicode hex="0056"/>
  <outline>
    <contour>
      <point x="702" y="730" type="line"/>
      <point x="330" y="0" type="line"/>
      <point x="192" y="0" type="line"/>
      <point x="78" y="730" type="line"/>
      <point x="236" y="730" type="line"/>
      <point x="302" y="215" type="line"/>
      <point x="550" y="730" type="line"/>
    </contour>
  </outline>
</glyph>
<glyph name="W" format="1">
  <advance width="924"/>
  <unicode hex="0057"/>
  <outline>
    <contour>
      <point x="970" y="730" type="line"/>
      <point x="652" y="0" type="line"/>
      <point x="513" y="0" type="line"/>
      <point x="476" y="474" type="line"/>
      <point x="270" y="0" type="line"/>
      <point x="132" y="0" type="line"/>
      <point x="79" y="730" type="line"/>
      <point x="243" y="730" type="line"/>
      <point x="260" y="265" type="line"/>
      <point x="461" y="730" type="line"/>
      <point x="596" y="730" type="line"/>
      <point x="629" y="268" type="line"/>
      <point x="815" y="730" type="line"/>
    </contour>
  </outline>
</glyph>
<glyph name="X" format="1">
  <advance width="693"/>
  <unicode hex="0058"/>
  <outline>
    <contour>
      <point x="710" y="730" type="line"/>
      <point x="441" y="388" type="line"/>
      <point x="609" y="0" type="line"/>
      <point x="433" y="0" type="line"/>
      <point x="324" y="254" type="line"/>
      <point x="128" y="0" type="line"/>
      <point x="-49" y="0" type="line"/>
      <point x="256" y="387" type="line"/>
      <point x="108" y="730" type="line"/>
      <point x="286" y="730" type="line"/>
      <point x="373" y="523" type="line"/>
      <point x="533" y="730" type="line"/>
    </contour>
  </outline>
</glyph>
<glyph name="Y" format="1">
  <advance width="647"/>
  <unicode hex="0059"/>
  <outline>
    <contour>
      <point x="710" y="730" type="line"/>
      <point x="389" y="312" type="line"/>
      <point x="334" y="0" type="line"/>
      <point x="181" y="0" type="line"/>
      <point x="236" y="312" type="line"/>
      <point x="65" y="730" type="line"/>
      <point x="235" y="730" type="line"/>
      <point x="339" y="457" type="line"/>
      <point x="540" y="730" type="line"/>
    </contour>
  </outline>
</glyph>
<glyph name="Z" format="1">
  <advance width="646"/>
  <unicode hex="005A"/>
  <outline>
    <contour>
      <point x="665" y="730" type="line"/>
      <point x="219" y="127" type="line"/>
      <point x="554" y="127" type="line"/>
      <point x="532" y="0" type="line"/>
      <point x="-43" y="0" type="line"/>
      <point x="401" y="603" type="line"/>
      <point x="111" y="603" type="line"/>
      <point x="134" y="730" type="line"/>
    </contour>
  </outline>
</glyph>
<glyph name="bracketleft" format="1">
  <advance width="379"/>
  <unicode hex="005B"/>
  <outline>
    <contour>
      <point x="404" y="730" type="line"/>
      <point x="385" y="619" type="line"/>
      <point x="271" y="619" type="line"/>
      <point x="150" y="-68" type="line"/>
      <point x="264" y="-68" type="line"/>
      <point x="244" y="-179" type="line"/>
      <point x="-20" y="-179" type="line"/>
      <point x="140" y="730" type="line"/>
    </contour>
  </outline>
</glyph>
<glyph name="backslash" format="1">
  <advance width="368"/>
  <unicode hex="005C"/>
  <outline>
    <contour>
      <point x="319" y="0" type="line"/>
      <point x="177" y="0" type="line"/>
      <point x="46" y="730" type="line"/>
      <point x="189" y="730" type="line"/>
    </contour>
  </outline>
</glyph>
<glyph name="bracketright" format="1">
  <advance width="379"/>
  <unicode hex="005D"/>
  <outline>
    <contour>
      <point x="369" y="730" type="line"/>
      <point x="209" y="-179" type="line"/>
      <point x="-55" y="-179" type="line"/>
      <point x="-36" y="-68" type="line"/>
      <point x="78" y="-68" type="line"/>
      <point x="200" y="619" type="line"/>
      <point x="86" y="619" type="line"/>
      <point x="105" y="730" type="line"/>
    </contour>
  </outline>
</glyph>
<glyph name="asciicircum" format="1">
  <advance width="579"/>
  <unicode hex="005E"/>
  <outline>
    <contour>
      <point x="552" y="370" type="line"/>
      <point x="397" y="370" type="line"/>
      <point x="329" y="594" type="line"/>
      <point x="184" y="370" type="line"/>
      <point x="28" y="370" type="line"/>
      <point x="277" y="730" type="line"/>
      <point x="431" y="730" type="line"/>
    </contour>
  </outline>
</glyph>
<glyph name="underscore" format="1">
  <advance width="500"/>
  <unicode hex="005F"/>
  <outline>
    <contour>
      <point x="461" y="-147" type="line"/>
      <point x="-42" y="-147" type="line"/>
      <point x="-42" y="-63" type="line"/>
      <point x="461" y="-63" type="line"/>
    </contour>
  </outline>
</glyph>
<glyph name="grave" format="1">
  <advance width="500"/>
  <unicode hex="0060"/>
  <outline>
    <contour>
      <point x="352" y="493" type="line"/>
      <point x="243" y="493" type="line"/>
      <point x="178" y="653" type="line"/>
      <point x="298" y="653" type="line"/>
    </contour>
  </outline>
</glyph>
<glyph name="a" format="1">
  <advance width="495"/>
  <unicode hex="0061"/>
  <outline>
    <contour>
      <point x="439" y="279" type="curve" smooth="yes"/>
      <point x="390" y="0" type="line"/>
      <point x="245" y="0" type="line"/>
      <point x="252" y="45" type="line"/>
      <point x="215" y="12"/>
      <point x="170" y="-10"/>
      <point x="116" y="-10" type="curve" smooth="yes"/>
      <point x="36" y="-10"/>
      <point x="-15" y="32"/>
      <point x="-15" y="103" type="curve" smooth="yes"/>
      <point x="-15" y="223"/>
      <point x="108" y="284"/>
      <point x="252" y="284" type="curve" smooth="yes"/>
      <point x="295" y="284" type="line"/>
      <point x="295" y="286" type="line"/>
      <point x="303" y="327"/>
      <point x="288" y="344"/>
      <point x="231" y="344" type="curve" smooth="yes"/>
      <point x="183" y="344"/>
      <point x="137" y="335"/>
      <point x="96" y="317" type="curve"/>
      <point x="72" y="404" type="line"/>
      <point x="125" y="429"/>
      <point x="190" y="443"/>
      <point x="260" y="443" type="curve" smooth="yes"/>
      <point x="398" y="443"/>
      <point x="460" y="400"/>
    </contour>
    <contour>
      <point x="281" y="204" type="line"/>
      <point x="240" y="204" type="line" smooth="yes"/>
      <point x="179" y="204"/>
      <point x="126" y="174"/>
      <point x="126" y="128" type="curve" smooth="yes"/>
      <point x="126" y="96"/>
      <point x="148" y="84"/>
      <point x="174" y="84" type="curve" smooth="yes"/>
      <point x="209" y="84"/>
      <point x="250" y="112"/>
      <point x="269" y="135" type="curve"/>
    </contour>
  </outline>
</glyph>
<glyph name="b" format="1">
  <advance width="538"/>
  <unicode hex="0062"/>
  <outline>
    <contour>
      <point x="493" y="256" type="curve" smooth="yes"/>
      <point x="493" y="130"/>
      <point x="394" y="-10"/>
      <point x="259" y="-10" type="curve" smooth="yes"/>
      <point x="201" y="-10"/>
      <point x="162" y="14"/>
      <point x="139" y="43" type="curve"/>
      <point x="132" y="0" type="line"/>
      <point x="-14" y="0" type="line"/>
      <point x="113" y="730" type="line"/>
      <point x="260" y="730" type="line"/>
      <point x="199" y="379" type="line"/>
      <point x="232" y="415"/>
      <point x="275" y="445"/>
      <point x="334" y="445" type="curve" smooth="yes"/>
      <point x="425" y="445"/>
      <point x="493" y="373"/>
    </contour>
    <contour>
      <point x="351" y="242" type="curve" smooth="yes"/>
      <point x="351" y="305"/>
      <point x="322" y="331"/>
      <point x="280" y="331" type="curve" smooth="yes"/>
      <point x="228" y="331"/>
      <point x="180" y="275"/>
      <point x="166" y="195" type="curve" smooth="yes"/>
      <point x="159" y="155" type="line"/>
      <point x="170" y="129"/>
      <point x="199" y="105"/>
      <point x="241" y="105" type="curve" smooth="yes"/>
      <point x="301" y="105"/>
      <point x="351" y="169"/>
    </contour>
  </outline>
</glyph>
<glyph name="c" format="1">
  <advance width="436"/>
  <unicode hex="0063"/>
  <outline>
    <contour>
      <point x="409" y="391" type="curve"/>
      <point x="320" y="301" type="line"/>
      <point x="302" y="319"/>
      <point x="281" y="330"/>
      <point x="245" y="330" type="curve" smooth="yes"/>
      <point x="183" y="330"/>
      <point x="136" y="262"/>
      <point x="136" y="192" type="curve" smooth="yes"/>
      <point x="136" y="141"/>
      <point x="161" y="105"/>
      <point x="209" y="105" type="curve" smooth="yes"/>
      <point x="246" y="105"/>
      <point x="273" y="121"/>
      <point x="300" y="149" type="curve"/>
      <point x="377" y="71" type="line"/>
      <point x="334" y="27"/>
      <point x="271" y="-12"/>
      <point x="192" y="-12" type="curve" smooth="yes"/>
      <point x="82" y="-12"/>
      <point x="-3" y="66"/>
      <point x="-3" y="178" type="curve" smooth="yes"/>
      <point x="-3" y="314"/>
      <point x="109" y="447"/>
      <point x="258" y="447" type="curve" smooth="yes"/>
      <point x="338" y="447"/>
      <point x="383" y="421"/>
    </contour>
  </outline>
</glyph>
<glyph name="d" format="1">
  <advance width="538"/>
  <unicode hex="0064"/>
  <outline>
    <contour>
      <point x="556" y="730" type="line"/>
      <point x="429" y="0" type="line"/>
      <point x="282" y="0" type="line"/>
      <point x="291" y="55" type="line"/>
      <point x="259" y="20"/>
      <point x="216" y="-10"/>
      <point x="158" y="-10" type="curve" smooth="yes"/>
      <point x="65" y="-10"/>
      <point x="-2" y="62"/>
      <point x="-2" y="179" type="curve" smooth="yes"/>
      <point x="-2" y="301"/>
      <point x="99" y="445"/>
      <point x="230" y="445" type="curve" smooth="yes"/>
      <point x="289" y="445"/>
      <point x="329" y="421"/>
      <point x="352" y="392" type="curve"/>
      <point x="410" y="730" type="line"/>
    </contour>
    <contour>
      <point x="332" y="280" type="line"/>
      <point x="322" y="306"/>
      <point x="293" y="330"/>
      <point x="251" y="330" type="curve" smooth="yes"/>
      <point x="191" y="330"/>
      <point x="139" y="266"/>
      <point x="139" y="193" type="curve" smooth="yes"/>
      <point x="139" y="131"/>
      <point x="169" y="104"/>
      <point x="212" y="104" type="curve" smooth="yes"/>
      <point x="264" y="104"/>
      <point x="311" y="158"/>
      <point x="325" y="239" type="curve" smooth="yes"/>
    </contour>
  </outline>
</glyph>
<glyph name="e" format="1">
  <advance width="480"/>
  <unicode hex="0065"/>
  <outline>
    <contour>
      <point x="429" y="268" type="curve" smooth="yes"/>
      <point x="429" y="243"/>
      <point x="427" y="215"/>
      <point x="421" y="192" type="curve"/>
      <point x="128" y="192" type="line"/>
      <point x="128" y="190"/>
      <point x="128" y="187"/>
      <point x="128" y="184" type="curve" smooth="yes"/>
      <point x="131" y="120"/>
      <point x="165" y="89"/>
      <point x="220" y="89" type="curve" smooth="yes"/>
      <point x="271" y="89"/>
      <point x="320" y="108"/>
      <point x="357" y="137" type="curve"/>
      <point x="407" y="60" type="line"/>
      <point x="356" y="18"/>
      <point x="291" y="-12"/>
      <point x="205" y="-12" type="curve" smooth="yes"/>
      <point x="78" y="-12"/>
      <point x="-3" y="55"/>
      <point x="-3" y="182" type="curve" smooth="yes"/>
      <point x="-3" y="314"/>
      <point x="95" y="447"/>
      <point x="244" y="447" type="curve" smooth="yes"/>
      <point x="351" y="447"/>
      <point x="429" y="378"/>
    </contour>
    <contour>
      <point x="303" y="267" type="line"/>
      <point x="306" y="308"/>
      <point x="291" y="353"/>
      <point x="239" y="353" type="curve" smooth="yes"/>
      <point x="195" y="353"/>
      <point x="160" y="323"/>
      <point x="141" y="267" type="curve"/>
    </contour>
  </outline>
</glyph>
<glyph name="f" format="1">
  <advance width="296"/>
  <unicode hex="0066"/>
  <outline>
    <contour>
      <point x="348" y="726" type="curve"/>
      <point x="326" y="616" type="line"/>
      <point x="320" y="618"/>
      <point x="306" y="620"/>
      <point x="296" y="620" type="curve" smooth="yes"/>
      <point x="265" y="620"/>
      <point x="251" y="594"/>
      <point x="241" y="539" type="curve" smooth="yes"/>
      <point x="222" y="435" type="line"/>
      <point x="294" y="435" type="line"/>
      <point x="275" y="324" type="line"/>
      <point x="203" y="324" type="line"/>
      <point x="115" y="-179" type="line"/>
      <point x="-30" y="-179" type="line"/>
      <point x="58" y="324" type="line"/>
      <point x="9" y="324" type="line"/>
      <point x="28" y="435" type="line"/>
      <point x="77" y="435" type="line"/>
      <point x="103" y="579" type="line" smooth="yes"/>
      <point x="121" y="681"/>
      <point x="180" y="732"/>
      <point x="256" y="732" type="curve" smooth="yes"/>
      <point x="274" y="732"/>
      <point x="338" y="731"/>
    </contour>
  </outline>
</glyph>
<glyph name="g" format="1">
  <advance width="538"/>
  <unicode hex="0067"/>
  <outline>
    <contour>
      <point x="505" y="435" type="line"/>
      <point x="435" y="35" type="line" smooth="yes"/>
      <point x="409" y="-115"/>
      <point x="319" y="-187"/>
      <point x="180" y="-187" type="curve" smooth="yes"/>
      <point x="104" y="-187"/>
      <point x="33" y="-165"/>
      <point x="-19" y="-134" type="curve"/>
      <point x="40" y="-44" type="line"/>
      <point x="83" y="-71"/>
      <point x="128" y="-83"/>
      <point x="172" y="-83" type="curve" smooth="yes"/>
      <point x="233" y="-83"/>
      <point x="272" y="-51"/>
      <point x="285" y="20" type="curve" smooth="yes"/>
      <point x="293" y="64" type="line"/>
      <point x="262" y="29"/>
      <point x="219" y="-1"/>
      <point x="159" y="-1" type="curve" smooth="yes"/>
      <point x="67" y="-1"/>
      <point x="-1" y="68"/>
      <point x="-1" y="185" type="curve" smooth="yes"/>
      <point x="-1" y="309"/>
      <point x="100" y="445"/>
      <point x="231" y="445" type="curve" smooth="yes"/>
      <point x="289" y="445"/>
      <point x="329" y="421"/>
      <point x="352" y="393" type="curve"/>
      <point x="359" y="435" type="line"/>
    </contour>
    <contour>
      <point x="333" y="285" type="line"/>
      <point x="322" y="311"/>
      <point x="293" y="335"/>
      <point x="251" y="335" type="curve" smooth="yes"/>
      <point x="191" y="335"/>
      <point x="140" y="272"/>
      <point x="140" y="198" type="curve" smooth="yes"/>
      <point x="140" y="136"/>
      <point x="169" y="110"/>
      <point x="212" y="110" type="curve" smooth="yes"/>
      <point x="264" y="110"/>
      <point x="312" y="165"/>
      <point x="326" y="245" type="curve" smooth="yes"/>
    </contour>
  </outline>
</glyph>
<glyph name="j" format="1">
  <advance width="243"/>
  <unicode hex="006A"/>
  <outline>
    <contour>
      <point x="248" y="655" type="line"/>
      <point x="224" y="517" type="line"/>
      <point x="76" y="517" type="line"/>
      <point x="100" y="655" type="line"/>
    </contour>
    <contour>
      <point x="208" y="435" type="line"/>
      <point x="128" y="-26" type="line" smooth="yes"/>
      <point x="110" y="-128"/>
      <point x="47" y="-179"/>
      <point x="-25" y="-179" type="curve" smooth="yes"/>
      <point x="-43" y="-179"/>
      <point x="-108" y="-177"/>
      <point x="-116" y="-173" type="curve"/>
      <point x="-94" y="-65" type="line"/>
      <point x="-88" y="-66"/>
      <point x="-73" y="-67"/>
      <point x="-67" y="-67" type="curve" smooth="yes"/>
      <point x="-34" y="-67"/>
      <point x="-22" y="-41"/>
      <point x="-12" y="14" type="curve" smooth="yes"/>
      <point x="62" y="435" type="line"/>
    </contour>
  </outline>
</glyph>
<glyph name="k" format="1">
  <advance width="503"/>
  <unicode hex="006B"/>
  <outline>
    <contour>
      <point x="502" y="435" type="line"/>
      <point x="317" y="258" type="line"/>
      <point x="433" y="0" type="line"/>
      <point x="271" y="0" type="line"/>
      <point x="199" y="156" type="line"/>
      <point x="151" y="112" type="line"/>
      <point x="131" y="0" type="line"/>
      <point x="-15" y="0" type="line"/>
      <point x="114" y="730" type="line"/>
      <point x="260" y="730" type="line"/>
      <point x="180" y="279" type="line"/>
      <point x="335" y="435" type="line"/>
    </contour>
  </outline>
</glyph>
<glyph name="l" format="1">
  <advance width="243"/>
  <unicode hex="006C"/>
  <outline>
    <contour>
      <point x="261" y="730" type="line"/>
      <point x="132" y="0" type="line"/>
      <point x="-14" y="0" type="line"/>
      <point x="115" y="730" type="line"/>
    </contour>
  </outline>
</glyph>
<glyph name="m" format="1">
  <advance width="782"/>
  <unicode hex="006D"/>
  <outline>
    <contour>
      <point x="726" y="273" type="curve" smooth="yes"/>
      <point x="678" y="0" type="line"/>
      <point x="532" y="0" type="line"/>
      <point x="577" y="248" type="line" smooth="yes"/>
      <point x="586" y="299"/>
      <point x="574" y="325"/>
      <point x="536" y="325" type="curve" smooth="yes"/>
      <point x="498" y="325"/>
      <point x="454" y="282"/>
      <point x="443" y="219" type="curve" smooth="yes"/>
      <point x="404" y="0" type="line"/>
      <point x="259" y="0" type="line"/>
      <point x="303" y="248" type="line" smooth="yes"/>
      <point x="312" y="299"/>
      <point x="300" y="325"/>
      <point x="263" y="325" type="curve" smooth="yes"/>
      <point x="220" y="325"/>
      <point x="179" y="277"/>
      <point x="169" y="219" type="curve" smooth="yes"/>
      <point x="130" y="0" type="line"/>
      <point x="-14" y="0" type="line"/>
      <point x="62" y="435" type="line"/>
      <point x="207" y="435" type="line"/>
      <point x="198" y="379" type="line"/>
      <point x="232" y="414"/>
      <point x="272" y="447"/>
      <point x="332" y="447" type="curve" smooth="yes"/>
      <point x="392" y="447"/>
      <point x="434" y="421"/>
      <point x="449" y="369" type="curve"/>
      <point x="486" y="409"/>
      <point x="540" y="447"/>
      <point x="602" y="447" type="curve" smooth="yes"/>
      <point x="700" y="447"/>
      <point x="746" y="384"/>
    </contour>
  </outline>
</glyph>
<glyph name="n" format="1">
  <advance width="525"/>
  <unicode hex="006E"/>
  <outline>
    <contour>
      <point x="468" y="273" type="curve" smooth="yes"/>
      <point x="420" y="0" type="line"/>
      <point x="273" y="0" type="line"/>
      <point x="318" y="247" type="line" smooth="yes"/>
      <point x="327" y="299"/>
      <point x="307" y="324"/>
      <point x="270" y="324" type="curve" smooth="yes"/>
      <point x="225" y="324"/>
      <point x="181" y="275"/>
      <point x="171" y="219" type="curve" smooth="yes"/>
      <point x="132" y="0" type="line"/>
      <point x="-14" y="0" type="line"/>
      <point x="62" y="435" type="line"/>
      <point x="209" y="435" type="line"/>
      <point x="199" y="379" type="line"/>
      <point x="232" y="413"/>
      <point x="278" y="447"/>
      <point x="338" y="447" type="curve" smooth="yes"/>
      <point x="437" y="447"/>
      <point x="487" y="383"/>
    </contour>
  </outline>
</glyph>
<glyph name="o" format="1">
  <advance width="499"/>
  <unicode hex="006F"/>
  <outline>
    <contour>
      <point x="458" y="262" type="curve" smooth="yes"/>
      <point x="458" y="101"/>
      <point x="337" y="-12"/>
      <point x="195" y="-12" type="curve" smooth="yes"/>
      <point x="79" y="-12"/>
      <point x="-3" y="66"/>
      <point x="-3" y="178" type="curve" smooth="yes"/>
      <point x="-3" y="317"/>
      <point x="112" y="447"/>
      <point x="261" y="447" type="curve" smooth="yes"/>
      <point x="375" y="447"/>
      <point x="458" y="367"/>
    </contour>
    <contour>
      <point x="320" y="244" type="curve" smooth="yes"/>
      <point x="320" y="300"/>
      <point x="292" y="332"/>
      <point x="245" y="332" type="curve" smooth="yes"/>
      <point x="186" y="332"/>
      <point x="134" y="266"/>
      <point x="134" y="192" type="curve" smooth="yes"/>
      <point x="134" y="138"/>
      <point x="161" y="102"/>
      <point x="210" y="102" type="curve" smooth="yes"/>
      <point x="275" y="102"/>
      <point x="320" y="171"/>
    </contour>
  </outline>
</glyph>
<glyph name="p" format="1">
  <advance width="538"/>
  <unicode hex="0070"/>
  <outline>
    <contour>
      <point x="493" y="255" type="curve" smooth="yes"/>
      <point x="493" y="132"/>
      <point x="395" y="-10"/>
      <point x="260" y="-10" type="curve" smooth="yes"/>
      <point x="201" y="-10"/>
      <point x="162" y="14"/>
      <point x="139" y="43" type="curve"/>
      <point x="100" y="-179" type="line"/>
      <point x="-46" y="-179" type="line"/>
      <point x="62" y="435" type="line"/>
      <point x="209" y="435" type="line"/>
      <point x="199" y="379" type="line"/>
      <point x="232" y="414"/>
      <point x="275" y="445"/>
      <point x="334" y="445" type="curve" smooth="yes"/>
      <point x="426" y="445"/>
      <point x="493" y="373"/>
    </contour>
    <contour>
      <point x="351" y="242" type="curve" smooth="yes"/>
      <point x="351" y="305"/>
      <point x="322" y="331"/>
      <point x="280" y="331" type="curve" smooth="yes"/>
      <point x="228" y="331"/>
      <point x="180" y="275"/>
      <point x="166" y="195" type="curve" smooth="yes"/>
      <point x="159" y="155" type="line"/>
      <point x="170" y="129"/>
      <point x="199" y="105"/>
      <point x="241" y="105" type="curve" smooth="yes"/>
      <point x="301" y="105"/>
      <point x="351" y="169"/>
    </contour>
  </outline>
</glyph>
<glyph name="q" format="1">
  <advance width="538"/>
  <unicode hex="0071"/>
  <outline>
    <contour>
      <point x="505" y="435" type="line"/>
      <point x="397" y="-179" type="line"/>
      <point x="251" y="-179" type="line"/>
      <point x="291" y="55" type="line"/>
      <point x="259" y="20"/>
      <point x="215" y="-10"/>
      <point x="159" y="-10" type="curve" smooth="yes"/>
      <point x="65" y="-10"/>
      <point x="-2" y="62"/>
      <point x="-2" y="179" type="curve" smooth="yes"/>
      <point x="-2" y="303"/>
      <point x="99" y="445"/>
      <point x="231" y="445" type="curve" smooth="yes"/>
      <point x="292" y="445"/>
      <point x="329" y="420"/>
      <point x="352" y="392" type="curve"/>
      <point x="359" y="435" type="line"/>
    </contour>
    <contour>
      <point x="334" y="280" type="line"/>
      <point x="323" y="306"/>
      <point x="294" y="330"/>
      <point x="252" y="330" type="curve" smooth="yes"/>
      <point x="192" y="330"/>
      <point x="141" y="266"/>
      <point x="141" y="193" type="curve" smooth="yes"/>
      <point x="141" y="131"/>
      <point x="170" y="104"/>
      <point x="213" y="104" type="curve" smooth="yes"/>
      <point x="266" y="104"/>
      <point x="313" y="160"/>
      <point x="327" y="240" type="curve" smooth="yes"/>
    </contour>
  </outline>
</glyph>
<glyph name="r" format="1">
  <advance width="397"/>
  <unicode hex="0072"/>
  <outline>
    <contour>
      <point x="402" y="423" type="curve"/>
      <point x="324" y="295" type="line"/>
      <point x="308" y="306"/>
      <point x="296" y="309"/>
      <point x="275" y="309" type="curve" smooth="yes"/>
      <point x="228" y="309"/>
      <point x="177" y="255"/>
      <point x="166" y="192" type="curve" smooth="yes"/>
      <point x="132" y="0" type="line"/>
      <point x="-14" y="0" type="line"/>
      <point x="62" y="435" type="line"/>
      <point x="209" y="435" type="line"/>
      <point x="199" y="375" type="line"/>
      <point x="229" y="414"/>
      <point x="276" y="447"/>
      <point x="325" y="447" type="curve" smooth="yes"/>
      <point x="359" y="447"/>
      <point x="384" y="438"/>
    </contour>
  </outline>
</glyph>
<glyph name="s" format="1">
  <advance width="389"/>
  <unicode hex="0073"/>
  <outline>
    <contour>
      <point x="362" y="406" type="curve"/>
      <point x="305" y="318" type="line"/>
      <point x="274" y="338"/>
      <point x="233" y="350"/>
      <point x="201" y="350" type="curve" smooth="yes"/>
      <point x="170" y="350"/>
      <point x="154" y="339"/>
      <point x="154" y="319" type="curve" smooth="yes"/>
      <point x="154" y="302"/>
      <point x="175" y="289"/>
      <point x="224" y="268" type="curve" smooth="yes"/>
      <point x="284" y="241"/>
      <point x="330" y="203"/>
      <point x="330" y="147" type="curve" smooth="yes"/>
      <point x="330" y="47"/>
      <point x="244" y="-10"/>
      <point x="144" y="-10" type="curve" smooth="yes"/>
      <point x="63" y="-10"/>
      <point x="9" y="11"/>
      <point x="-31" y="40" type="curve"/>
      <point x="31" y="126" type="line"/>
      <point x="72" y="99"/>
      <point x="111" y="86"/>
      <point x="153" y="86" type="curve" smooth="yes"/>
      <point x="178" y="86"/>
      <point x="201" y="97"/>
      <point x="201" y="122" type="curve" smooth="yes"/>
      <point x="201" y="142"/>
      <point x="172" y="158"/>
      <point x="123" y="180" type="curve" smooth="yes"/>
      <point x="67" y="205"/>
      <point x="25" y="236"/>
      <point x="25" y="296" type="curve" smooth="yes"/>
      <point x="25" y="388"/>
      <point x="113" y="445"/>
      <point x="206" y="445" type="curve" smooth="yes"/>
      <point x="270" y="445"/>
      <point x="318" y="433"/>
    </contour>
  </outline>
</glyph>
<glyph name="t" format="1">
  <advance width="323"/>
  <unicode hex="0074"/>
  <outline>
    <contour>
      <point x="300" y="435" type="line"/>
      <point x="281" y="324" type="line"/>
      <point x="204" y="324" type="line"/>
      <point x="180" y="187" type="line" smooth="yes"/>
      <point x="172" y="140"/>
      <point x="182" y="113"/>
      <point x="221" y="113" type="curve" smooth="yes"/>
      <point x="224" y="113"/>
      <point x="249" y="114"/>
      <point x="249" y="114" type="curve"/>
      <point x="207" y="0" type="line"/>
      <point x="155" y="0" type="line" smooth="yes"/>
      <point x="58" y="0"/>
      <point x="11" y="56"/>
      <point x="31" y="167" type="curve" smooth="yes"/>
      <point x="59" y="324" type="line"/>
      <point x="9" y="324" type="line"/>
      <point x="28" y="435" type="line"/>
      <point x="78" y="435" type="line"/>
      <point x="108" y="600" type="line"/>
      <point x="257" y="623" type="line"/>
      <point x="223" y="435" type="line"/>
    </contour>
  </outline>
</glyph>
<glyph name="u" format="1">
  <advance width="525"/>
  <unicode hex="0075"/>
  <outline>
    <contour>
      <point x="488" y="435" type="line"/>
      <point x="411" y="0" type="line"/>
      <point x="265" y="0" type="line"/>
      <point x="274" y="56" type="line"/>
      <point x="241" y="21"/>
      <point x="194" y="-12"/>
      <point x="134" y="-12" type="curve" smooth="yes"/>
      <point x="36" y="-12"/>
      <point x="-14" y="52"/>
      <point x="5" y="162" type="curve" smooth="yes"/>
      <point x="53" y="435" type="line"/>
      <point x="200" y="435" type="line"/>
      <point x="156" y="187" type="line" smooth="yes"/>
      <point x="147" y="135"/>
      <point x="166" y="110"/>
      <point x="203" y="110" type="curve" smooth="yes"/>
      <point x="245" y="110"/>
      <point x="293" y="158"/>
      <point x="303" y="216" type="curve" smooth="yes"/>
      <point x="342" y="435" type="line"/>
    </contour>
  </outline>
</glyph>
<glyph name="v" format="1">
  <advance width="478"/>
  <unicode hex="0076"/>
  <outline>
    <contour>
      <point x="484" y="435" type="line"/>
      <point x="219" y="-7" type="line"/>
      <point x="121" y="-7" type="line"/>
      <point x="12" y="435" type="line"/>
      <point x="170" y="435" type="line"/>
      <point x="210" y="202" type="line"/>
      <point x="329" y="435" type="line"/>
    </contour>
  </outline>
</glyph>
<glyph name="w" format="1">
  <advance width="699"/>
  <unicode hex="0077"/>
  <outline>
    <contour>
      <point x="704" y="435" type="line"/>
      <point x="460" y="-7" type="line"/>
      <point x="371" y="-7" type="line"/>
      <point x="318" y="203" type="line"/>
      <point x="190" y="-7" type="line"/>
      <point x="101" y="-7" type="line"/>
      <point x="13" y="435" type="line"/>
      <point x="168" y="435" type="line"/>
      <point x="205" y="216" type="line"/>
      <point x="365" y="458" type="line"/>
      <point x="440" y="218" type="line"/>
      <point x="550" y="435" type="line"/>
    </contour>
  </outline>
</glyph>
<glyph name="x" format="1">
  <advance width="478"/>
  <unicode hex="0078"/>
  <outline>
    <contour>
      <point x="465" y="435" type="line"/>
      <point x="301" y="230" type="line"/>
      <point x="411" y="0" type="line"/>
      <point x="256" y="0" type="line"/>
      <point x="201" y="128" type="line"/>
      <point x="100" y="0" type="line"/>
      <point x="-53" y="0" type="line"/>
      <point x="135" y="230" type="line"/>
      <point x="39" y="435" type="line"/>
      <point x="195" y="435" type="line"/>
      <point x="238" y="335" type="line"/>
      <point x="314" y="435" type="line"/>
    </contour>
  </outline>
</glyph>
<glyph name="y" format="1">
  <advance width="480"/>
  <unicode hex="0079"/>
  <outline>
    <contour>
      <point x="486" y="435" type="line"/>
      <point x="232" y="-44" type="line" smooth="yes"/>
      <point x="194" y="-115"/>
      <point x="133" y="-179"/>
      <point x="39" y="-179" type="curve" smooth="yes"/>
      <point x="25" y="-179"/>
      <point x="-29" y="-178"/>
      <point x="-43" y="-174" type="curve"/>
      <point x="-24" y="-61" type="line"/>
      <point x="-17" y="-64"/>
      <point x="7" y="-66"/>
      <point x="15" y="-66" type="curve" smooth="yes"/>
      <point x="59" y="-66"/>
      <point x="82" y="-48"/>
      <point x="102" y="-9" type="curve"/>
      <point x="15" y="435" type="line"/>
      <point x="171" y="435" type="line"/>
      <point x="208" y="153" type="line"/>
      <point x="330" y="435" type="line"/>
    </contour>
  </outline>
</glyph>
<glyph name="z" format="1">
  <advance width="460"/>
  <unicode hex="007A"/>
  <outline>
    <contour>
      <point x="455" y="435" type="line"/>
      <point x="193" y="112" type="line"/>
      <point x="384" y="112" type="line"/>
      <point x="364" y="0" type="line"/>
      <point x="-54" y="0" type="line"/>
      <point x="207" y="322" type="line"/>
      <point x="37" y="322" type="line"/>
      <point x="56" y="435" type="line"/>
    </contour>
  </outline>
</glyph>
<glyph name="braceleft" format="1">
  <advance width="341"/>
  <unicode hex="007B"/>
  <outline>
    <contour>
      <point x="379" y="744" type="curve"/>
      <point x="358" y="626" type="line"/>
      <point x="305" y="603"/>
      <point x="286" y="558"/>
      <point x="274" y="493" type="curve" smooth="yes"/>
      <point x="257" y="396"/>
      <point x="238" y="318"/>
      <point x="151" y="286" type="curve"/>
      <point x="197" y="267"/>
      <point x="212" y="236"/>
      <point x="212" y="187" type="curve" smooth="yes"/>
      <point x="212" y="155"/>
      <point x="206" y="117"/>
      <point x="199" y="76" type="curve" smooth="yes"/>
      <point x="186" y="2"/>
      <point x="190" y="-42"/>
      <point x="236" y="-67" type="curve"/>
      <point x="216" y="-179" type="line"/>
      <point x="80" y="-155"/>
      <point x="30" y="-45"/>
      <point x="54" y="88" type="curve" smooth="yes"/>
      <point x="59" y="118"/>
      <point x="64" y="145"/>
      <point x="64" y="167" type="curve" smooth="yes"/>
      <point x="65" y="206"/>
      <point x="51" y="230"/>
      <point x="4" y="234" type="curve"/>
      <point x="25" y="345" type="line"/>
      <point x="99" y="351"/>
      <point x="110" y="396"/>
      <point x="132" y="502" type="curve" smooth="yes"/>
      <point x="167" y="666"/>
      <point x="239" y="730"/>
    </contour>
  </outline>
</glyph>
<glyph name="bar" format="1">
  <advance width="272"/>
  <unicode hex="007C"/>
  <outline>
    <contour>
      <point x="271" y="730" type="line"/>
      <point x="112" y="-179" type="line"/>
      <point x="-28" y="-179" type="line"/>
      <point x="132" y="730" type="line"/>
    </contour>
  </outline>
</glyph>
<glyph name="braceright" format="1">
  <advance width="341"/>
  <unicode hex="007D"/>
  <outline>
    <contour>
      <point x="309" y="329" type="curve"/>
      <point x="288" y="219" type="line"/>
      <point x="215" y="213"/>
      <point x="205" y="169"/>
      <point x="182" y="64" type="curve" smooth="yes"/>
      <point x="147" y="-100"/>
      <point x="75" y="-164"/>
      <point x="-65" y="-178" type="curve"/>
      <point x="-44" y="-60" type="line"/>
      <point x="8" y="-38"/>
      <point x="29" y="8"/>
      <point x="40" y="72" type="curve" smooth="yes"/>
      <point x="58" y="170"/>
      <point x="76" y="248"/>
      <point x="163" y="280" type="curve"/>
      <point x="116" y="299"/>
      <point x="102" y="331"/>
      <point x="102" y="378" type="curve" smooth="yes"/>
      <point x="102" y="436"/>
      <point x="124" y="515"/>
      <point x="123" y="553" type="curve" smooth="yes"/>
      <point x="123" y="589"/>
      <point x="110" y="617"/>
      <point x="78" y="633" type="curve"/>
      <point x="98" y="745" type="line"/>
      <point x="208" y="727"/>
      <point x="266" y="646"/>
      <point x="267" y="550" type="curve" smooth="yes"/>
      <point x="267" y="495"/>
      <point x="249" y="442"/>
      <point x="249" y="396" type="curve" smooth="yes"/>
      <point x="249" y="357"/>
      <point x="262" y="333"/>
    </contour>
  </outline>
</glyph>
<glyph name="asciitilde" format="1">
  <advance width="546"/>
  <unicode hex="007E"/>
  <outline>
    <contour>
      <point x="528" y="470" type="line"/>
      <point x="511" y="352"/>
      <point x="462" y="261"/>
      <point x="364" y="261" type="curve" smooth="yes"/>
      <point x="324" y="261"/>
      <point x="293" y="281"/>
      <point x="264" y="301" type="curve" smooth="yes"/>
      <point x="233" y="322"/>
      <point x="214" y="340"/>
      <point x="190" y="340" type="curve" smooth="yes"/>
      <point x="166" y="340"/>
      <point x="154" y="305"/>
      <point x="147" y="264" type="curve"/>
      <point x="19" y="264" type="line"/>
      <point x="39" y="384"/>
      <point x="81" y="472"/>
      <point x="188" y="472" type="curve" smooth="yes"/>
      <point x="228" y="472"/>
      <point x="262" y="450"/>
      <point x="292" y="431" type="curve" smooth="yes"/>
      <point x="318" y="415"/>
      <point x="337" y="396"/>
      <point x="360" y="396" type="curve" smooth="yes"/>
      <point x="383" y="396"/>
      <point x="395" y="425"/>
      <point x="400" y="470" type="curve"/>
    </contour>
  </outline>
</glyph>
<glyph name="exclamdown" format="1">
  <advance width="276"/>
  <unicode hex="00A1"/>
  <outline>
    <contour>
      <point x="282" y="730" type="line"/>
      <point x="256" y="581" type="line"/>
      <point x="99" y="581" type="line"/>
      <point x="125" y="730" type="line"/>
    </contour>
    <contour>
      <point x="220" y="528" type="line"/>
      <point x="199" y="258" type="line"/>
      <point x="154" y="0" type="line"/>
      <point x="-3" y="0" type="line"/>
      <point x="42" y="258" type="line"/>
      <point x="117" y="528" type="line"/>
    </contour>
  </outline>
</glyph>
<glyph name="cent" format="1">
  <advance width="437"/>
  <unicode hex="00A2"/>
  <outline>
    <contour>
      <point x="413" y="391" type="curve"/>
      <point x="329" y="307" type="line"/>
      <point x="313" y="322"/>
      <point x="297" y="333"/>
      <point x="269" y="337" type="curve"/>
      <point x="227" y="99" type="line"/>
      <point x="256" y="104"/>
      <point x="278" y="119"/>
      <point x="302" y="144" type="curve"/>
      <point x="374" y="72" type="line"/>
      <point x="334" y="32"/>
      <point x="278" y="-5"/>
      <point x="211" y="-11" type="curve"/>
      <point x="199" y="-79" type="line"/>
      <point x="135" y="-79" type="line"/>
      <point x="148" y="-8" type="line"/>
      <point x="58" y="9"/>
      <point x="1" y="81"/>
      <point x="1" y="178" type="curve" smooth="yes"/>
      <point x="1" y="301"/>
      <point x="96" y="426"/>
      <point x="227" y="444" type="curve"/>
      <point x="238" y="507" type="line"/>
      <point x="303" y="507" type="line"/>
      <point x="292" y="445" type="line"/>
      <point x="353" y="439"/>
      <point x="390" y="416"/>
    </contour>
    <contour>
      <point x="212" y="332" type="line"/>
      <point x="164" y="312"/>
      <point x="128" y="253"/>
      <point x="128" y="191" type="curve" smooth="yes"/>
      <point x="128" y="149"/>
      <point x="143" y="117"/>
      <point x="172" y="105" type="curve"/>
    </contour>
  </outline>
</glyph>
<glyph name="sterling" format="1">
  <advance width="688"/>
  <unicode hex="00A3"/>
  <outline>
    <contour>
      <point x="658" y="521" type="curve"/>
      <point x="504" y="521" type="line"/>
      <point x="518" y="583"/>
      <point x="492" y="630"/>
      <point x="411" y="630" type="curve" smooth="yes"/>
      <point x="333" y="630"/>
      <point x="288" y="581"/>
      <point x="288" y="513" type="curve" smooth="yes"/>
      <point x="288" y="481"/>
      <point x="305" y="451"/>
      <point x="323" y="417" type="curve"/>
      <point x="522" y="417" type="line"/>
      <point x="514" y="370" type="line"/>
      <point x="350" y="370" type="line"/>
      <point x="359" y="356"/>
      <point x="368" y="341"/>
      <point x="375" y="325" type="curve"/>
      <point x="506" y="325" type="line"/>
      <point x="497" y="278" type="line"/>
      <point x="389" y="278" type="line"/>
      <point x="390" y="270"/>
      <point x="391" y="261"/>
      <point x="391" y="253" type="curve" smooth="yes"/>
      <point x="391" y="216"/>
      <point x="382" y="183"/>
      <point x="367" y="153" type="curve"/>
      <point x="391" y="139"/>
      <point x="411" y="127"/>
      <point x="436" y="127" type="curve" smooth="yes"/>
      <point x="476" y="127"/>
      <point x="494" y="167"/>
      <point x="499" y="209" type="curve"/>
      <point x="499" y="209"/>
      <point x="613" y="209"/>
      <point x="623" y="209" type="curve"/>
      <point x="611" y="87"/>
      <point x="565" y="-12"/>
      <point x="447" y="-12" type="curve" smooth="yes"/>
      <point x="378" y="-12"/>
      <point x="340" y="24"/>
      <point x="303" y="55" type="curve"/>
      <point x="257" y="14"/>
      <point x="202" y="-12"/>
      <point x="127" y="-12" type="curve" smooth="yes"/>
      <point x="43" y="-12"/>
      <point x="-4" y="33"/>
      <point x="-4" y="96" type="curve" smooth="yes"/>
      <point x="-4" y="181"/>
      <point x="73" y="221"/>
      <point x="153" y="221" type="curve" smooth="yes"/>
      <point x="189" y="221"/>
      <point x="219" y="213"/>
      <point x="249" y="199" type="curve"/>
      <point x="251" y="214"/>
      <point x="250" y="229"/>
      <point x="247" y="243" type="curve" smooth="yes"/>
      <point x="244" y="255"/>
      <point x="240" y="267"/>
      <point x="235" y="278" type="curve"/>
      <point x="57" y="278" type="line"/>
      <point x="65" y="325" type="line"/>
      <point x="207" y="325" type="line"/>
      <point x="197" y="340"/>
      <point x="188" y="355"/>
      <point x="178" y="370" type="curve"/>
      <point x="73" y="370" type="line"/>
      <point x="81" y="417" type="line"/>
      <point x="155" y="417" type="line"/>
      <point x="141" y="447"/>
      <point x="130" y="478"/>
      <point x="130" y="512" type="curve" smooth="yes"/>
      <point x="130" y="624"/>
      <point x="228" y="742"/>
      <point x="422" y="742" type="curve" smooth="yes"/>
      <point x="589" y="742"/>
      <point x="685" y="664"/>
    </contour>
    <contour>
      <point x="226" y="117" type="curve"/>
      <point x="205" y="134"/>
      <point x="183" y="146"/>
      <point x="153" y="146" type="curve" smooth="yes"/>
      <point x="114" y="146"/>
      <point x="91" y="130"/>
      <point x="91" y="104" type="curve" smooth="yes"/>
      <point x="91" y="83"/>
      <point x="107" y="69"/>
      <point x="140" y="69" type="curve" smooth="yes"/>
      <point x="174" y="69"/>
      <point x="206" y="87"/>
    </contour>
  </outline>
</glyph>
<glyph name="yen" format="1">
  <advance width="666"/>
  <unicode hex="00A5"/>
  <outline>
    <contour>
      <point x="344" y="0" type="line"/>
      <point x="194" y="0" type="line"/>
      <point x="215" y="117" type="line"/>
      <point x="93" y="117" type="line"/>
      <point x="101" y="162" type="line"/>
      <point x="222" y="162" type="line"/>
      <point x="233" y="222" type="line"/>
      <point x="112" y="222" type="line"/>
      <point x="120" y="268" type="line"/>
      <point x="238" y="268" type="line"/>
      <point x="244" y="309" type="line"/>
      <point x="78" y="730" type="line"/>
      <point x="247" y="730" type="line"/>
      <point x="334" y="477" type="line" smooth="yes"/>
      <point x="336" y="470"/>
      <point x="345" y="441"/>
      <point x="345" y="436" type="curve"/>
      <point x="348" y="441"/>
      <point x="367" y="471"/>
      <point x="371" y="477" type="curve" smooth="yes"/>
      <point x="547" y="730" type="line"/>
      <point x="722" y="730" type="line"/>
      <point x="400" y="309" type="line"/>
      <point x="392" y="268" type="line"/>
      <point x="514" y="268" type="line"/>
      <point x="506" y="222" type="line"/>
      <point x="384" y="222" type="line"/>
      <point x="373" y="162" type="line"/>
      <point x="495" y="162" type="line"/>
      <point x="487" y="117" type="line"/>
      <point x="365" y="117" type="line"/>
    </contour>
  </outline>
</glyph>
<glyph name="brokenbar" format="1">
  <advance width="282"/>
  <unicode hex="00A6"/>
  <outline>
    <contour>
      <point x="63" y="351" type="line"/>
      <point x="130" y="730" type="line"/>
      <point x="282" y="730" type="line"/>
      <point x="215" y="351" type="line"/>
    </contour>
    <contour>
      <point x="188" y="200" type="line"/>
      <point x="121" y="-179" type="line"/>
      <point x="-31" y="-179" type="line"/>
      <point x="36" y="200" type="line"/>
    </contour>
  </outline>
</glyph>
<glyph name="section" format="1">
  <advance width="646"/>
  <unicode hex="00A7"/>
  <outline>
    <contour>
      <point x="495" y="8" type="curve" smooth="yes"/>
      <point x="495" y="-116"/>
      <point x="380" y="-184"/>
      <point x="236" y="-184" type="curve" smooth="yes"/>
      <point x="131" y="-184"/>
      <point x="53" y="-154"/>
      <point x="-5" y="-107" type="curve"/>
      <point x="69" y="-11" type="line"/>
      <point x="112" y="-42"/>
      <point x="175" y="-67"/>
      <point x="245" y="-67" type="curve" smooth="yes"/>
      <point x="317" y="-67"/>
      <point x="352" y="-43"/>
      <point x="352" y="-13" type="curve" smooth="yes"/>
      <point x="352" y="14"/>
      <point x="336" y="26"/>
      <point x="288" y="46" type="curve" smooth="yes"/>
      <point x="156" y="101" type="line" smooth="yes"/>
      <point x="64" y="139"/>
      <point x="27" y="187"/>
      <point x="27" y="263" type="curve" smooth="yes"/>
      <point x="27" y="354"/>
      <point x="104" y="426"/>
      <point x="164" y="460" type="curve"/>
      <point x="142" y="489"/>
      <point x="131" y="520"/>
      <point x="131" y="552" type="curve" smooth="yes"/>
      <point x="131" y="677"/>
      <point x="254" y="742"/>
      <point x="389" y="742" type="curve" smooth="yes"/>
      <point x="494" y="742"/>
      <point x="578" y="706"/>
      <point x="630" y="663" type="curve"/>
      <point x="551" y="565" type="line"/>
      <point x="504" y="600"/>
      <point x="437" y="624"/>
      <point x="372" y="624" type="curve" smooth="yes"/>
      <point x="312" y="624"/>
      <point x="275" y="603"/>
      <point x="275" y="572" type="curve" smooth="yes"/>
      <point x="275" y="550"/>
      <point x="286" y="535"/>
      <point x="334" y="516" type="curve" smooth="yes"/>
      <point x="480" y="457" type="line" smooth="yes"/>
      <point x="568" y="422"/>
      <point x="604" y="371"/>
      <point x="604" y="300" type="curve" smooth="yes"/>
      <point x="604" y="213"/>
      <point x="538" y="132"/>
      <point x="465" y="89" type="curve"/>
      <point x="482" y="70"/>
      <point x="495" y="43"/>
    </contour>
    <contour>
      <point x="464" y="266" type="curve" smooth="yes"/>
      <point x="464" y="298"/>
      <point x="444" y="322"/>
      <point x="392" y="344" type="curve" smooth="yes"/>
      <point x="392" y="344"/>
      <point x="256" y="403"/>
      <point x="248" y="406" type="curve"/>
      <point x="204" y="380"/>
      <point x="165" y="343"/>
      <point x="165" y="294" type="curve" smooth="yes"/>
      <point x="165" y="259"/>
      <point x="183" y="236"/>
      <point x="239" y="212" type="curve" smooth="yes"/>
      <point x="239" y="212"/>
      <point x="366" y="159"/>
      <point x="380" y="153" type="curve"/>
      <point x="427" y="179"/>
      <point x="464" y="219"/>
    </contour>
  </outline>
</glyph>
<glyph name="dieresis" format="1">
  <advance width="500"/>
  <unicode hex="00A8"/>
  <outline>
    <contour>
      <point x="454" y="620" type="line"/>
      <point x="432" y="493" type="line"/>
      <point x="309" y="493" type="line"/>
      <point x="331" y="620" type="line"/>
    </contour>
    <contour>
      <point x="257" y="620" type="line"/>
      <point x="235" y="493" type="line"/>
      <point x="112" y="493" type="line"/>
      <point x="134" y="620" type="line"/>
    </contour>
  </outline>
</glyph>
<glyph name="copyright" format="1">
  <advance width="844"/>
  <unicode hex="00A9"/>
  <outline>
    <contour>
      <point x="799" y="365" type="curve" smooth="yes"/>
      <point x="799" y="157"/>
      <point x="630" y="-12"/>
      <point x="422" y="-12" type="curve" smooth="yes"/>
      <point x="214" y="-12"/>
      <point x="45" y="157"/>
      <point x="45" y="365" type="curve" smooth="yes"/>
      <point x="45" y="573"/>
      <point x="214" y="742"/>
      <point x="422" y="742" type="curve" smooth="yes"/>
      <point x="630" y="742"/>
      <point x="799" y="573"/>
    </contour>
    <contour>
      <point x="740" y="364" type="curve" smooth="yes"/>
      <point x="740" y="543"/>
      <point x="601" y="686"/>
      <point x="422" y="686" type="curve" smooth="yes"/>
      <point x="243" y="686"/>
      <point x="104" y="543"/>
      <point x="104" y="364" type="curve" smooth="yes"/>
      <point x="104" y="185"/>
      <point x="243" y="43"/>
      <point x="422" y="43" type="curve" smooth="yes"/>
      <point x="601" y="43"/>
      <point x="740" y="185"/>
    </contour>
    <contour>
      <point x="599" y="215" type="line"/>
      <point x="562" y="173"/>
      <point x="506" y="141"/>
      <point x="429" y="141" type="curve" smooth="yes"/>
      <point x="311" y="141"/>
      <point x="209" y="229"/>
      <point x="209" y="371" type="curve" smooth="yes"/>
      <point x="209" y="494"/>
      <point x="303" y="594"/>
      <point x="431" y="594" type="curve" smooth="yes"/>
      <point x="507" y="594"/>
      <point x="554" y="566"/>
      <point x="590" y="527" type="curve"/>
      <point x="533" y="463" type="line"/>
      <point x="505" y="491"/>
      <point x="474" y="507"/>
      <point x="431" y="507" type="curve" smooth="yes"/>
      <point x="361" y="507"/>
      <point x="307" y="451"/>
      <point x="307" y="373" type="curve" smooth="yes"/>
      <point x="307" y="280"/>
      <point x="370" y="228"/>
      <point x="433" y="228" type="curve" smooth="yes"/>
      <point x="471" y="228"/>
      <point x="511" y="244"/>
      <point x="543" y="278" type="curve"/>
    </contour>
  </outline>
</glyph>
<glyph name="ordfeminine" format="1">
  <advance width="442"/>
  <unicode hex="00AA"/>
  <outline>
    <contour>
      <point x="414" y="620" type="curve" smooth="yes"/>
      <point x="374" y="399" type="line"/>
      <point x="284" y="399" type="line"/>
      <point x="289" y="431" type="line"/>
      <point x="259" y="406"/>
      <point x="224" y="390"/>
      <point x="187" y="390" type="curve" smooth="yes"/>
      <point x="117" y="390"/>
      <point x="80" y="432"/>
      <point x="80" y="486" type="curve" smooth="yes"/>
      <point x="80" y="579"/>
      <point x="170" y="621"/>
      <point x="270" y="621" type="curve" smooth="yes"/>
      <point x="324" y="621" type="line"/>
      <point x="329" y="653"/>
      <point x="320" y="669"/>
      <point x="271" y="669" type="curve" smooth="yes"/>
      <point x="229" y="669"/>
      <point x="192" y="661"/>
      <point x="164" y="650" type="curve"/>
      <point x="149" y="715" type="line"/>
      <point x="181" y="732"/>
      <point x="236" y="742"/>
      <point x="283" y="742" type="curve" smooth="yes"/>
      <point x="390" y="742"/>
      <point x="428" y="700"/>
    </contour>
    <contour>
      <point x="373" y="336" type="line"/>
      <point x="358" y="256" type="line"/>
      <point x="50" y="256" type="line"/>
      <point x="64" y="336" type="line"/>
    </contour>
    <contour>
      <point x="310" y="554" type="line"/>
      <point x="259" y="554" type="line" smooth="yes"/>
      <point x="212" y="554"/>
      <point x="171" y="535"/>
      <point x="171" y="498" type="curve" smooth="yes"/>
      <point x="171" y="474"/>
      <point x="187" y="462"/>
      <point x="210" y="462" type="curve" smooth="yes"/>
      <point x="246" y="462"/>
      <point x="282" y="486"/>
      <point x="302" y="508" type="curve"/>
    </contour>
  </outline>
</glyph>
<glyph name="guillemotleft" format="1">
  <advance width="444"/>
  <unicode hex="00AB"/>
  <outline>
    <contour>
      <point x="402" y="397" type="line"/>
      <point x="380" y="270" type="line"/>
      <point x="289" y="218" type="line"/>
      <point x="362" y="166" type="line"/>
      <point x="339" y="39" type="line"/>
      <point x="193" y="156" type="line"/>
      <point x="216" y="280" type="line"/>
    </contour>
    <contour>
      <point x="204" y="397" type="line"/>
      <point x="182" y="270" type="line"/>
      <point x="91" y="218" type="line"/>
      <point x="163" y="166" type="line"/>
      <point x="141" y="39" type="line"/>
      <point x="-4" y="156" type="line"/>
      <point x="18" y="280" type="line"/>
    </contour>
  </outline>
</glyph>
<glyph name="degree" format="1">
  <advance width="429"/>
  <unicode hex="00B0"/>
  <outline>
    <contour>
      <point x="423" y="552" type="curve" smooth="yes"/>
      <point x="423" y="447"/>
      <point x="338" y="362"/>
      <point x="233" y="362" type="curve" smooth="yes"/>
      <point x="128" y="362"/>
      <point x="43" y="447"/>
      <point x="43" y="552" type="curve" smooth="yes"/>
      <point x="43" y="657"/>
      <point x="128" y="742"/>
      <point x="233" y="742" type="curve" smooth="yes"/>
      <point x="338" y="742"/>
      <point x="423" y="657"/>
    </contour>
    <contour>
      <point x="330" y="552" type="curve" smooth="yes"/>
      <point x="330" y="607"/>
      <point x="288" y="653"/>
      <point x="233" y="653" type="curve" smooth="yes"/>
      <point x="178" y="653"/>
      <point x="136" y="607"/>
      <point x="136" y="552" type="curve" smooth="yes"/>
      <point x="136" y="497"/>
      <point x="178" y="451"/>
      <point x="233" y="451" type="curve" smooth="yes"/>
      <point x="288" y="451"/>
      <point x="330" y="497"/>
    </contour>
  </outline>
</glyph>
<glyph name="twosuperior" format="1">
  <advance width="458"/>
  <unicode hex="00B2"/>
  <outline>
    <contour>
      <point x="307" y="409" type="line"/>
      <point x="408" y="409" type="line"/>
      <point x="386" y="289" type="line"/>
      <point x="39" y="289" type="line"/>
      <point x="266" y="516" type="line" smooth="yes"/>
      <point x="289" y="539"/>
      <point x="301" y="563"/>
      <point x="301" y="583" type="curve" smooth="yes"/>
      <point x="301" y="610"/>
      <point x="282" y="621"/>
      <point x="259" y="621" type="curve" smooth="yes"/>
      <point x="227" y="621"/>
      <point x="211" y="595"/>
      <point x="204" y="561" type="curve" smooth="yes"/>
      <point x="203" y="556" type="line"/>
      <point x="80" y="556" type="line"/>
      <point x="81" y="563" type="line" smooth="yes"/>
      <point x="93" y="646"/>
      <point x="152" y="740"/>
      <point x="266" y="740" type="curve" smooth="yes"/>
      <point x="397" y="740"/>
      <point x="429" y="664"/>
      <point x="429" y="597" type="curve" smooth="yes"/>
      <point x="429" y="556"/>
      <point x="409" y="509"/>
      <point x="375" y="476" type="curve" smooth="yes"/>
    </contour>
  </outline>
</glyph>
<glyph name="acute" format="1">
  <advance width="500"/>
  <unicode hex="00B4"/>
  <outline>
    <contour>
      <point x="405" y="653" type="line"/>
      <point x="289" y="493" type="line"/>
      <point x="173" y="493" type="line"/>
      <point x="279" y="653" type="line"/>
    </contour>
  </outline>
</glyph>
<glyph name="paragraph" format="1">
  <advance width="741"/>
  <unicode hex="00B6"/>
  <outline>
    <contour>
      <point x="744" y="730" type="line"/>
      <point x="584" y="-179" type="line"/>
      <point x="443" y="-179" type="line"/>
      <point x="585" y="625" type="line"/>
      <point x="515" y="625" type="line"/>
      <point x="373" y="-179" type="line"/>
      <point x="268" y="-179" type="line"/>
      <point x="345" y="254" type="line"/>
      <point x="267" y="254" type="line" smooth="yes"/>
      <point x="137" y="254"/>
      <point x="48" y="335"/>
      <point x="48" y="448" type="curve" smooth="yes"/>
      <point x="48" y="613"/>
      <point x="182" y="730"/>
      <point x="374" y="730" type="curve" smooth="yes"/>
    </contour>
    <contour>
      <point x="411" y="623" type="line"/>
      <point x="366" y="623" type="line" smooth="yes"/>
      <point x="271" y="623"/>
      <point x="204" y="549"/>
      <point x="204" y="459" type="curve" smooth="yes"/>
      <point x="204" y="394"/>
      <point x="241" y="361"/>
      <point x="313" y="361" type="curve" smooth="yes"/>
      <point x="364" y="361" type="line"/>
    </contour>
  </outline>
</glyph>
<glyph name="periodcentered" format="1">
  <advance width="239"/>
  <unicode hex="00B7"/>
  <outline>
    <contour>
      <point x="176" y="253" type="line"/>
      <point x="24" y="253" type="line"/>
      <point x="51" y="409" type="line"/>
      <point x="204" y="409" type="line"/>
    </contour>
  </outline>
</glyph>
<glyph name="cedilla" format="1">
  <advance width="500"/>
  <unicode hex="00B8"/>
  <outline>
    <contour>
      <point x="276" y="-95" type="curve" smooth="yes"/>
      <point x="276" y="-157"/>
      <point x="220" y="-191"/>
      <point x="151" y="-191" type="curve" smooth="yes"/>
      <point x="111" y="-191"/>
      <point x="74" y="-176"/>
      <point x="48" y="-156" type="curve"/>
      <point x="86" y="-110" type="line"/>
      <point x="106" y="-123"/>
      <point x="127" y="-131"/>
      <point x="153" y="-131" type="curve" smooth="yes"/>
      <point x="171" y="-131"/>
      <point x="187" y="-120"/>
      <point x="188" y="-106" type="curve" smooth="yes"/>
      <point x="188" y="-93"/>
      <point x="179" y="-82"/>
      <point x="158" y="-82" type="curve" smooth="yes"/>
      <point x="144" y="-82"/>
      <point x="134" y="-85"/>
      <point x="120" y="-91" type="curve"/>
      <point x="103" y="-55" type="line"/>
      <point x="156" y="12" type="line"/>
      <point x="232" y="12" type="line"/>
      <point x="196" y="-33" type="line"/>
      <point x="246" y="-32"/>
      <point x="276" y="-61"/>
    </contour>
  </outline>
</glyph>
<glyph name="ordmasculine" format="1">
  <advance width="452"/>
  <unicode hex="00BA"/>
  <outline>
    <contour>
      <point x="437" y="600" type="curve" smooth="yes"/>
      <point x="437" y="476"/>
      <point x="342" y="389"/>
      <point x="237" y="389" type="curve" smooth="yes"/>
      <point x="148" y="389"/>
      <point x="91" y="450"/>
      <point x="91" y="536" type="curve" smooth="yes"/>
      <point x="91" y="641"/>
      <point x="180" y="742"/>
      <point x="291" y="742" type="curve" smooth="yes"/>
      <point x="379" y="742"/>
      <point x="437" y="681"/>
    </contour>
    <contour>
      <point x="382" y="336" type="line"/>
      <point x="369" y="256" type="line"/>
      <point x="50" y="256" type="line"/>
      <point x="63" y="336" type="line"/>
    </contour>
    <contour>
      <point x="333" y="586" type="curve" smooth="yes"/>
      <point x="333" y="630"/>
      <point x="314" y="654"/>
      <point x="278" y="654" type="curve" smooth="yes"/>
      <point x="232" y="654"/>
      <point x="194" y="607"/>
      <point x="194" y="546" type="curve" smooth="yes"/>
      <point x="194" y="504"/>
      <point x="212" y="476"/>
      <point x="250" y="476" type="curve" smooth="yes"/>
      <point x="303" y="476"/>
      <point x="333" y="529"/>
    </contour>
  </outline>
</glyph>
<glyph name="guillemotright" format="1">
  <advance width="444"/>
  <unicode hex="00BB"/>
  <outline>
    <contour>
      <point x="399" y="280" type="line"/>
      <point x="377" y="156" type="line"/>
      <point x="190" y="39" type="line"/>
      <point x="212" y="166" type="line"/>
      <point x="303" y="218" type="line"/>
      <point x="231" y="270" type="line"/>
      <point x="253" y="397" type="line"/>
    </contour>
    <contour>
      <point x="201" y="280" type="line"/>
      <point x="179" y="156" type="line"/>
      <point x="-8" y="39" type="line"/>
      <point x="14" y="166" type="line"/>
      <point x="105" y="218" type="line"/>
      <point x="33" y="270" type="line"/>
      <point x="55" y="397" type="line"/>
    </contour>
  </outline>
</glyph>
<glyph name="onequarter" format="1">
  <advance width="1037"/>
  <unicode hex="00BC"/>
  <outline>
    <contour>
      <point x="105" y="279" type="line"/>
      <point x="154" y="555" type="line"/>
      <point x="136" y="541"/>
      <point x="106" y="532"/>
      <point x="73" y="530" type="curve"/>
      <point x="95" y="651" type="line"/>
      <point x="155" y="659"/>
      <point x="180" y="670"/>
      <point x="219" y="729" type="curve"/>
      <point x="321" y="729" type="line"/>
      <point x="241" y="279" type="line"/>
    </contour>
    <contour>
      <point x="866" y="730" type="line"/>
      <point x="238" y="0" type="line"/>
      <point x="89" y="0" type="line"/>
      <point x="717" y="730" type="line"/>
    </contour>
    <contour>
      <point x="929" y="89" type="line"/>
      <point x="887" y="89" type="line"/>
      <point x="871" y="0" type="line"/>
      <point x="741" y="0" type="line"/>
      <point x="757" y="89" type="line"/>
      <point x="552" y="89" type="line"/>
      <point x="567" y="176" type="line"/>
      <point x="791" y="450" type="line"/>
      <point x="951" y="450" type="line"/>
      <point x="905" y="189" type="line"/>
      <point x="947" y="189" type="line"/>
    </contour>
    <contour>
      <point x="775" y="189" type="line"/>
      <point x="796" y="312" type="line"/>
      <point x="694" y="189" type="line"/>
    </contour>
  </outline>
</glyph>
<glyph name="onehalf" format="1">
  <advance width="1014"/>
  <unicode hex="00BD"/>
  <outline>
    <contour>
      <point x="105" y="279" type="line"/>
      <point x="155" y="559" type="line"/>
      <point x="137" y="545"/>
      <point x="110" y="535"/>
      <point x="73" y="530" type="curve"/>
      <point x="95" y="651" type="line"/>
      <point x="146" y="658"/>
      <point x="192" y="682"/>
      <point x="222" y="729" type="curve"/>
      <point x="321" y="729" type="line"/>
      <point x="241" y="279" type="line"/>
    </contour>
    <contour>
      <point x="857" y="730" type="line"/>
      <point x="229" y="0" type="line"/>
      <point x="80" y="0" type="line"/>
      <point x="708" y="730" type="line"/>
    </contour>
    <contour>
      <point x="821" y="120" type="line"/>
      <point x="922" y="120" type="line"/>
      <point x="900" y="0" type="line"/>
      <point x="552" y="0" type="line"/>
      <point x="780" y="227" type="line" smooth="yes"/>
      <point x="803" y="250"/>
      <point x="815" y="274"/>
      <point x="815" y="294" type="curve" smooth="yes"/>
      <point x="815" y="321"/>
      <point x="796" y="332"/>
      <point x="773" y="332" type="curve" smooth="yes"/>
      <point x="741" y="332"/>
      <point x="725" y="306"/>
      <point x="718" y="272" type="curve" smooth="yes"/>
      <point x="717" y="267" type="line"/>
      <point x="594" y="267" type="line"/>
      <point x="595" y="274" type="line" smooth="yes"/>
      <point x="607" y="357"/>
      <point x="666" y="451"/>
      <point x="780" y="451" type="curve" smooth="yes"/>
      <point x="911" y="451"/>
      <point x="943" y="375"/>
      <point x="943" y="308" type="curve" smooth="yes"/>
      <point x="943" y="267"/>
      <point x="923" y="220"/>
      <point x="889" y="187" type="curve" smooth="yes"/>
    </contour>
  </outline>
</glyph>
<glyph name="threequarters" format="1">
  <advance width="1132"/>
  <unicode hex="00BE"/>
  <outline>
    <contour>
      <point x="407" y="621" type="curve" smooth="yes"/>
      <point x="407" y="558"/>
      <point x="354" y="522"/>
      <point x="319" y="516" type="curve"/>
      <point x="361" y="513"/>
      <point x="389" y="477"/>
      <point x="389" y="435" type="curve" smooth="yes"/>
      <point x="389" y="373"/>
      <point x="341" y="264"/>
      <point x="192" y="264" type="curve" smooth="yes"/>
      <point x="114" y="264"/>
      <point x="70" y="288"/>
      <point x="42" y="311" type="curve"/>
      <point x="115" y="400" type="line"/>
      <point x="134" y="385"/>
      <point x="164" y="374"/>
      <point x="195" y="374" type="curve" smooth="yes"/>
      <point x="240" y="374"/>
      <point x="265" y="395"/>
      <point x="265" y="431" type="curve" smooth="yes"/>
      <point x="265" y="458"/>
      <point x="244" y="463"/>
      <point x="208" y="463" type="curve" smooth="yes"/>
      <point x="174" y="463" type="line"/>
      <point x="190" y="553" type="line"/>
      <point x="223" y="553" type="line" smooth="yes"/>
      <point x="257" y="553"/>
      <point x="283" y="562"/>
      <point x="283" y="596" type="curve" smooth="yes"/>
      <point x="283" y="611"/>
      <point x="274" y="631"/>
      <point x="237" y="631" type="curve" smooth="yes"/>
      <point x="205" y="631"/>
      <point x="179" y="612"/>
      <point x="164" y="592" type="curve"/>
      <point x="85" y="657" type="line"/>
      <point x="105" y="686"/>
      <point x="162" y="741"/>
      <point x="252" y="741" type="curve" smooth="yes"/>
      <point x="387" y="741"/>
      <point x="407" y="664"/>
    </contour>
    <contour>
      <point x="959" y="730" type="line"/>
      <point x="331" y="0" type="line"/>
      <point x="182" y="0" type="line"/>
      <point x="810" y="730" type="line"/>
    </contour>
    <contour>
      <point x="1024" y="89" type="line"/>
      <point x="982" y="89" type="line"/>
      <point x="966" y="0" type="line"/>
      <point x="836" y="0" type="line"/>
      <point x="852" y="89" type="line"/>
      <point x="652" y="89" type="line"/>
      <point x="667" y="176" type="line"/>
      <point x="891" y="450" type="line"/>
      <point x="1046" y="450" type="line"/>
      <point x="1000" y="189" type="line"/>
      <point x="1042" y="189" type="line"/>
    </contour>
    <contour>
      <point x="870" y="189" type="line"/>
      <point x="891" y="312" type="line"/>
      <point x="789" y="189" type="line"/>
    </contour>
  </outline>
</glyph>
<glyph name="questiondown" format="1">
  <advance width="465"/>
  <unicode hex="00BF"/>
  <outline>
    <contour>
      <point x="385" y="737" type="line"/>
      <point x="359" y="588" type="line"/>
      <point x="202" y="588" type="line"/>
      <point x="228" y="737" type="line"/>
    </contour>
    <contour>
      <point x="407" y="79" type="line"/>
      <point x="345" y="24"/>
      <point x="263" y="-5"/>
      <point x="185" y="-5" type="curve" smooth="yes"/>
      <point x="70" y="-5"/>
      <point x="-13" y="48"/>
      <point x="-13" y="150" type="curve" smooth="yes"/>
      <point x="-13" y="246"/>
      <point x="31" y="297"/>
      <point x="118" y="384" type="curve" smooth="yes"/>
      <point x="172" y="437"/>
      <point x="195" y="476"/>
      <point x="202" y="532" type="curve"/>
      <point x="202" y="533" type="line"/>
      <point x="339" y="533" type="line"/>
      <point x="338" y="523" type="line" smooth="yes"/>
      <point x="329" y="435"/>
      <point x="287" y="377"/>
      <point x="237" y="326" type="curve" smooth="yes"/>
      <point x="176" y="264"/>
      <point x="147" y="231"/>
      <point x="147" y="187" type="curve" smooth="yes"/>
      <point x="147" y="145"/>
      <point x="170" y="122"/>
      <point x="212" y="122" type="curve" smooth="yes"/>
      <point x="255" y="122"/>
      <point x="301" y="150"/>
      <point x="345" y="189" type="curve"/>
    </contour>
  </outline>
</glyph>
<glyph name="Adieresis" format="1">
  <advance width="712"/>
  <unicode hex="00C4"/>
  <outline>
    <contour>
      <point x="710" y="730" type="line"/>
      <point x="687" y="603" type="line"/>
      <point x="565" y="603" type="line"/>
      <point x="587" y="730" type="line"/>
    </contour>
    <contour>
      <point x="247" y="730" type="line"/>
      <point x="225" y="603" type="line"/>
      <point x="102" y="603" type="line"/>
      <point x="124" y="730" type="line"/>
    </contour>
    <contour>
      <point x="629" y="0" type="line"/>
      <point x="466" y="0" type="line"/>
      <point x="434" y="193" type="line"/>
      <point x="213" y="193" type="line"/>
      <point x="112" y="0" type="line"/>
      <point x="-46" y="0" type="line"/>
      <point x="346" y="730" type="line"/>
      <point x="494" y="730" type="line"/>
    </contour>
    <contour>
      <point x="415" y="319" type="line"/>
      <point x="386" y="518" type="line"/>
      <point x="385" y="522"/>
      <point x="384" y="538"/>
      <point x="384" y="538" type="curve"/>
      <point x="384" y="538"/>
      <point x="377" y="523"/>
      <point x="376" y="519" type="curve"/>
      <point x="277" y="319" type="line"/>
    </contour>
  </outline>
</glyph>
<glyph name="Aring" format="1">
  <advance width="712"/>
  <unicode hex="00C5"/>
  <outline>
    <contour>
      <point x="629" y="0" type="line"/>
      <point x="466" y="0" type="line"/>
      <point x="434" y="193" type="line"/>
      <point x="213" y="193" type="line"/>
      <point x="112" y="0" type="line"/>
      <point x="-46" y="0" type="line"/>
      <point x="338" y="707" type="line"/>
      <point x="310" y="728"/>
      <point x="294" y="763"/>
      <point x="294" y="803" type="curve" smooth="yes"/>
      <point x="294" y="873"/>
      <point x="350" y="929"/>
      <point x="420" y="929" type="curve" smooth="yes"/>
      <point x="491" y="929"/>
      <point x="547" y="873"/>
      <point x="547" y="803" type="curve" smooth="yes"/>
      <point x="547" y="758"/>
      <point x="523" y="721"/>
      <point x="489" y="701" type="curve"/>
    </contour>
    <contour>
      <point x="472" y="803" type="curve" smooth="yes"/>
      <point x="472" y="832"/>
      <point x="450" y="855"/>
      <point x="420" y="855" type="curve" smooth="yes"/>
      <point x="391" y="855"/>
      <point x="369" y="832"/>
      <point x="369" y="803" type="curve" smooth="yes"/>
      <point x="369" y="774"/>
      <point x="391" y="750"/>
      <point x="420" y="750" type="curve" smooth="yes"/>
      <point x="450" y="750"/>
      <point x="472" y="774"/>
    </contour>
    <contour>
      <point x="415" y="319" type="line"/>
      <point x="383" y="535" type="line"/>
      <point x="277" y="319" type="line"/>
    </contour>
  </outline>
</glyph>
<glyph name="AE" format="1">
  <advance width="930"/>
  <unicode hex="00C6"/>
  <outline>
    <contour>
      <point x="933" y="730" type="line"/>
      <point x="909" y="601" type="line"/>
      <point x="649" y="601" type="line"/>
      <point x="618" y="425" type="line"/>
      <point x="860" y="425" type="line"/>
      <point x="837" y="296" type="line"/>
      <point x="595" y="296" type="line"/>
      <point x="565" y="129" type="line"/>
      <point x="842" y="129" type="line"/>
      <point x="819" y="0" type="line"/>
      <point x="393" y="0" type="line"/>
      <point x="427" y="193" type="line"/>
      <point x="249" y="193" type="line"/>
      <point x="111" y="0" type="line"/>
      <point x="-51" y="0" type="line"/>
      <point x="469" y="730" type="line"/>
    </contour>
    <contour>
      <point x="501" y="578" type="line"/>
      <point x="327" y="318" type="line"/>
      <point x="450" y="318" type="line"/>
    </contour>
  </outline>
</glyph>
<glyph name="Ccedilla" format="1">
  <advance width="698"/>
  <unicode hex="00C7"/>
  <outline>
    <contour>
      <point x="305" y="-10" type="line"/>
      <point x="132" y="8"/>
      <point x="29" y="134"/>
      <point x="29" y="302" type="curve" smooth="yes"/>
      <point x="29" y="557"/>
      <point x="232" y="742"/>
      <point x="459" y="742" type="curve" smooth="yes"/>
      <point x="588" y="742"/>
      <point x="654" y="687"/>
      <point x="702" y="631" type="curve"/>
      <point x="593" y="530" type="line"/>
      <point x="568" y="563"/>
      <point x="525" y="604"/>
      <point x="436" y="604" type="curve" smooth="yes"/>
      <point x="288" y="604"/>
      <point x="189" y="456"/>
      <point x="189" y="321" type="curve" smooth="yes"/>
      <point x="189" y="207"/>
      <point x="253" y="126"/>
      <point x="374" y="126" type="curve" smooth="yes"/>
      <point x="436" y="126"/>
      <point x="492" y="151"/>
      <point x="550" y="205" type="curve"/>
      <point x="624" y="99" type="line"/>
      <point x="559" y="40"/>
      <point x="477" y="-3"/>
      <point x="380" y="-11" type="curve"/>
      <point x="360" y="-36" type="line"/>
      <point x="410" y="-35"/>
      <point x="440" y="-64"/>
      <point x="440" y="-98" type="curve" smooth="yes"/>
      <point x="440" y="-160"/>
      <point x="384" y="-194"/>
      <point x="315" y="-194" type="curve" smooth="yes"/>
      <point x="275" y="-194"/>
      <point x="238" y="-179"/>
      <point x="212" y="-159" type="curve"/>
      <point x="250" y="-113" type="line"/>
      <point x="270" y="-126"/>
      <point x="291" y="-134"/>
      <point x="317" y="-134" type="curve" smooth="yes"/>
      <point x="335" y="-134"/>
      <point x="351" y="-123"/>
      <point x="352" y="-109" type="curve" smooth="yes"/>
      <point x="352" y="-96"/>
      <point x="343" y="-85"/>
      <point x="322" y="-85" type="curve" smooth="yes"/>
      <point x="308" y="-85"/>
      <point x="298" y="-88"/>
      <point x="284" y="-94" type="curve"/>
      <point x="267" y="-58" type="line"/>
    </contour>
  </outline>
</glyph>
<glyph name="Eth" format="1">
  <advance width="740"/>
  <unicode hex="00D0"/>
  <outline>
    <contour>
      <point x="710" y="444" type="curve" smooth="yes"/>
      <point x="710" y="168"/>
      <point x="506" y="0"/>
      <point x="251" y="0" type="curve" smooth="yes"/>
      <point x="28" y="0" type="line"/>
      <point x="80" y="291" type="line"/>
      <point x="8" y="291" type="line"/>
      <point x="30" y="419" type="line"/>
      <point x="102" y="419" type="line"/>
      <point x="157" y="730" type="line"/>
      <point x="377" y="730" type="line" smooth="yes"/>
      <point x="572" y="730"/>
      <point x="710" y="637"/>
    </contour>
    <contour>
      <point x="532" y="418" type="curve" smooth="yes"/>
      <point x="532" y="542"/>
      <point x="470" y="600"/>
      <point x="345" y="600" type="curve" smooth="yes"/>
      <point x="286" y="600" type="line"/>
      <point x="254" y="419" type="line"/>
      <point x="390" y="419" type="line"/>
      <point x="368" y="291" type="line"/>
      <point x="232" y="291" type="line"/>
      <point x="203" y="130" type="line"/>
      <point x="254" y="130" type="line" smooth="yes"/>
      <point x="421" y="130"/>
      <point x="532" y="264"/>
    </contour>
  </outline>
</glyph>
<glyph name="Odieresis" format="1">
  <advance width="822"/>
  <unicode hex="00D6"/>
  <outline>
    <contour>
      <point x="717" y="640" type="curve"/>
      <point x="732" y="728" type="line"/>
      <point x="855" y="728" type="line"/>
      <point x="833" y="601" type="line"/>
      <point x="746" y="601" type="line"/>
      <point x="776" y="551"/>
      <point x="792" y="492"/>
      <point x="792" y="429" type="curve" smooth="yes"/>
      <point x="792" y="174"/>
      <point x="588" y="-12"/>
      <point x="363" y="-12" type="curve" smooth="yes"/>
      <point x="168" y="-12"/>
      <point x="31" y="111"/>
      <point x="31" y="305" type="curve" smooth="yes"/>
      <point x="31" y="424"/>
      <point x="74" y="525"/>
      <point x="143" y="601" type="curve"/>
      <point x="41" y="601" type="line"/>
      <point x="63" y="728" type="line"/>
      <point x="186" y="728" type="line"/>
      <point x="168" y="627" type="line"/>
      <point x="248" y="700"/>
      <point x="355" y="742"/>
      <point x="468" y="742" type="curve" smooth="yes"/>
      <point x="577" y="742"/>
      <point x="662" y="703"/>
    </contour>
    <contour>
      <point x="633" y="411" type="curve" smooth="yes"/>
      <point x="633" y="527"/>
      <point x="572" y="607"/>
      <point x="443" y="607" type="curve" smooth="yes"/>
      <point x="289" y="607"/>
      <point x="191" y="460"/>
      <point x="191" y="323" type="curve" smooth="yes"/>
      <point x="191" y="202"/>
      <point x="259" y="124"/>
      <point x="380" y="124" type="curve" smooth="yes"/>
      <point x="518" y="124"/>
      <point x="633" y="259"/>
    </contour>
  </outline>
</glyph>
<glyph name="multiply" format="1">
  <advance width="533"/>
  <unicode hex="00D7"/>
  <outline>
    <contour>
      <point x="171" y="328" type="line"/>
      <point x="54" y="474" type="line"/>
      <point x="160" y="567" type="line"/>
      <point x="277" y="421" type="line"/>
      <point x="444" y="567" type="line"/>
      <point x="525" y="467" type="line"/>
      <point x="358" y="321" type="line"/>
      <point x="475" y="176" type="line"/>
      <point x="369" y="82" type="line"/>
      <point x="252" y="228" type="line"/>
      <point x="85" y="82" type="line"/>
      <point x="4" y="183" type="line"/>
    </contour>
  </outline>
</glyph>
<glyph name="Oslash" format="1">
  <advance width="822"/>
  <unicode hex="00D8"/>
  <outline>
    <contour>
      <point x="792" y="428" type="curve" smooth="yes"/>
      <point x="792" y="174"/>
      <point x="589" y="-12"/>
      <point x="363" y="-12" type="curve" smooth="yes"/>
      <point x="274" y="-12"/>
      <point x="196" y="14"/>
      <point x="139" y="60" type="curve"/>
      <point x="69" y="-2" type="line"/>
      <point x="14" y="55" type="line"/>
      <point x="85" y="118" type="line"/>
      <point x="50" y="169"/>
      <point x="31" y="232"/>
      <point x="31" y="305" type="curve" smooth="yes"/>
      <point x="31" y="564"/>
      <point x="234" y="742"/>
      <point x="468" y="742" type="curve" smooth="yes"/>
      <point x="559" y="742"/>
      <point x="633" y="714"/>
      <point x="688" y="669" type="curve"/>
      <point x="761" y="735" type="line"/>
      <point x="815" y="679" type="line"/>
      <point x="740" y="611" type="line"/>
      <point x="774" y="560"/>
      <point x="792" y="497"/>
    </contour>
    <contour>
      <point x="570" y="566" type="line"/>
      <point x="540" y="592"/>
      <point x="497" y="606"/>
      <point x="443" y="606" type="curve" smooth="yes"/>
      <point x="289" y="606"/>
      <point x="191" y="460"/>
      <point x="191" y="323" type="curve" smooth="yes"/>
      <point x="191" y="287"/>
      <point x="198" y="255"/>
      <point x="211" y="228" type="curve"/>
    </contour>
    <contour>
      <point x="632" y="411" type="curve" smooth="yes"/>
      <point x="632" y="445"/>
      <point x="626" y="476"/>
      <point x="614" y="501" type="curve"/>
      <point x="256" y="164" type="line"/>
      <point x="287" y="139"/>
      <point x="329" y="124"/>
      <point x="380" y="124" type="curve" smooth="yes"/>
      <point x="520" y="124"/>
      <point x="632" y="256"/>
    </contour>
  </outline>
</glyph>
<glyph name="Thorn" format="1">
  <advance width="586"/>
  <unicode hex="00DE"/>
  <outline>
    <contour>
      <point x="569" y="407" type="curve" smooth="yes"/>
      <point x="569" y="244"/>
      <point x="437" y="152"/>
      <point x="274" y="152" type="curve" smooth="yes"/>
      <point x="182" y="152" type="line"/>
      <point x="155" y="0" type="line"/>
      <point x="-1" y="0" type="line"/>
      <point x="128" y="730" type="line"/>
      <point x="284" y="730" type="line"/>
      <point x="260" y="592" type="line"/>
      <point x="355" y="592" type="line" smooth="yes"/>
      <point x="504" y="592"/>
      <point x="569" y="508"/>
    </contour>
    <contour>
      <point x="415" y="390" type="curve" smooth="yes"/>
      <point x="415" y="437"/>
      <point x="383" y="467"/>
      <point x="311" y="467" type="curve" smooth="yes"/>
      <point x="238" y="467" type="line"/>
      <point x="205" y="278" type="line"/>
      <point x="283" y="278" type="line" smooth="yes"/>
      <point x="362" y="278"/>
      <point x="415" y="320"/>
    </contour>
  </outline>
</glyph>
<glyph name="germandbls" format="1">
  <advance width="526"/>
  <unicode hex="00DF"/>
  <outline>
    <contour>
      <point x="495" y="586" type="curve" smooth="yes"/>
      <point x="495" y="501"/>
      <point x="436" y="432"/>
      <point x="377" y="410" type="curve"/>
      <point x="418" y="390"/>
      <point x="474" y="340"/>
      <point x="474" y="243" type="curve" smooth="yes"/>
      <point x="474" y="95"/>
      <point x="379" y="-12"/>
      <point x="237" y="-12" type="curve" smooth="yes"/>
      <point x="217" y="-12"/>
      <point x="191" y="-8"/>
      <point x="174" y="-3" type="curve"/>
      <point x="194" y="106" type="line"/>
      <point x="204" y="102"/>
      <point x="219" y="100"/>
      <point x="232" y="100" type="curve" smooth="yes"/>
      <point x="297" y="100"/>
      <point x="337" y="154"/>
      <point x="337" y="242" type="curve" smooth="yes"/>
      <point x="337" y="308"/>
      <point x="299" y="363"/>
      <point x="233" y="371" type="curve"/>
      <point x="248" y="456" type="line"/>
      <point x="249" y="456"/>
      <point x="255" y="456"/>
      <point x="255" y="456" type="curve" smooth="yes"/>
      <point x="314" y="456"/>
      <point x="355" y="511"/>
      <point x="355" y="570" type="curve" smooth="yes"/>
      <point x="355" y="606"/>
      <point x="336" y="630"/>
      <point x="303" y="630" type="curve" smooth="yes"/>
      <point x="259" y="630"/>
      <point x="231" y="596"/>
      <point x="221" y="538" type="curve" smooth="yes"/>
      <point x="209" y="468"/>
      <point x="95" y="-179"/>
      <point x="95" y="-179" type="curve"/>
      <point x="-48" y="-179" type="line"/>
      <point x="77" y="530" type="line" smooth="yes"/>
      <point x="101" y="667"/>
      <point x="178" y="742"/>
      <point x="313" y="742" type="curve" smooth="yes"/>
      <point x="422" y="742"/>
      <point x="495" y="677"/>
    </contour>
  </outline>
</glyph>
<glyph name="ae" format="1">
  <advance width="770"/>
  <unicode hex="00E6"/>
  <outline>
    <contour>
      <point x="118" y="-10" type="curve" smooth="yes"/>
      <point x="38" y="-10"/>
      <point x="-13" y="32"/>
      <point x="-13" y="103" type="curve" smooth="yes"/>
      <point x="-13" y="223"/>
      <point x="110" y="284"/>
      <point x="254" y="284" type="curve" smooth="yes"/>
      <point x="299" y="284" type="line"/>
      <point x="299" y="286" type="line"/>
      <point x="307" y="327"/>
      <point x="290" y="344"/>
      <point x="233" y="344" type="curve" smooth="yes"/>
      <point x="185" y="344"/>
      <point x="139" y="335"/>
      <point x="98" y="317" type="curve"/>
      <point x="74" y="404" type="line"/>
      <point x="127" y="429"/>
      <point x="192" y="443"/>
      <point x="262" y="443" type="curve" smooth="yes"/>
      <point x="336" y="443"/>
      <point x="374" y="416"/>
      <point x="391" y="385" type="curve"/>
      <point x="419" y="415"/>
      <point x="483" y="443"/>
      <point x="534" y="443" type="curve" smooth="yes"/>
      <point x="641" y="443"/>
      <point x="719" y="378"/>
      <point x="719" y="268" type="curve" smooth="yes"/>
      <point x="719" y="243"/>
      <point x="717" y="215"/>
      <point x="711" y="192" type="curve"/>
      <point x="418" y="192" type="line"/>
      <point x="418" y="190"/>
      <point x="418" y="187"/>
      <point x="418" y="184" type="curve" smooth="yes"/>
      <point x="421" y="120"/>
      <point x="455" y="89"/>
      <point x="510" y="89" type="curve" smooth="yes"/>
      <point x="561" y="89"/>
      <point x="610" y="108"/>
      <point x="647" y="137" type="curve"/>
      <point x="697" y="60" type="line"/>
      <point x="646" y="18"/>
      <point x="581" y="-12"/>
      <point x="495" y="-12" type="curve" smooth="yes"/>
      <point x="407" y="-12"/>
      <point x="341" y="20"/>
      <point x="309" y="82" type="curve"/>
      <point x="268" y="27"/>
      <point x="200" y="-10"/>
    </contour>
    <contour>
      <point x="593" y="267" type="line"/>
      <point x="596" y="308"/>
      <point x="580" y="349"/>
      <point x="529" y="349" type="curve" smooth="yes"/>
      <point x="485" y="349"/>
      <point x="450" y="323"/>
      <point x="431" y="267" type="curve"/>
    </contour>
    <contour>
      <point x="285" y="204" type="line"/>
      <point x="242" y="204" type="line" smooth="yes"/>
      <point x="181" y="204"/>
      <point x="128" y="174"/>
      <point x="128" y="128" type="curve" smooth="yes"/>
      <point x="128" y="96"/>
      <point x="150" y="84"/>
      <point x="176" y="84" type="curve" smooth="yes"/>
      <point x="211" y="84"/>
      <point x="255" y="113"/>
      <point x="274" y="136" type="curve"/>
    </contour>
  </outline>
</glyph>
<glyph name="ccedilla" format="1">
  <advance width="436"/>
  <unicode hex="00E7"/>
  <outline>
    <contour>
      <point x="143" y="-7" type="line"/>
      <point x="58" y="13"/>
      <point x="-3" y="83"/>
      <point x="-3" y="178" type="curve" smooth="yes"/>
      <point x="-3" y="314"/>
      <point x="109" y="447"/>
      <point x="258" y="447" type="curve" smooth="yes"/>
      <point x="338" y="447"/>
      <point x="383" y="421"/>
      <point x="409" y="391" type="curve"/>
      <point x="320" y="301" type="line"/>
      <point x="302" y="319"/>
      <point x="281" y="330"/>
      <point x="245" y="330" type="curve" smooth="yes"/>
      <point x="183" y="330"/>
      <point x="136" y="262"/>
      <point x="136" y="192" type="curve" smooth="yes"/>
      <point x="136" y="141"/>
      <point x="161" y="105"/>
      <point x="209" y="105" type="curve" smooth="yes"/>
      <point x="246" y="105"/>
      <point x="273" y="121"/>
      <point x="300" y="149" type="curve"/>
      <point x="377" y="71" type="line"/>
      <point x="338" y="32"/>
      <point x="284" y="-4"/>
      <point x="216" y="-11" type="curve"/>
      <point x="198" y="-33" type="line"/>
      <point x="248" y="-32"/>
      <point x="278" y="-61"/>
      <point x="278" y="-95" type="curve" smooth="yes"/>
      <point x="278" y="-157"/>
      <point x="222" y="-191"/>
      <point x="153" y="-191" type="curve" smooth="yes"/>
      <point x="113" y="-191"/>
      <point x="76" y="-176"/>
      <point x="50" y="-156" type="curve"/>
      <point x="88" y="-110" type="line"/>
      <point x="108" y="-123"/>
      <point x="129" y="-131"/>
      <point x="155" y="-131" type="curve" smooth="yes"/>
      <point x="173" y="-131"/>
      <point x="189" y="-120"/>
      <point x="190" y="-106" type="curve" smooth="yes"/>
      <point x="190" y="-93"/>
      <point x="181" y="-82"/>
      <point x="160" y="-82" type="curve" smooth="yes"/>
      <point x="146" y="-82"/>
      <point x="136" y="-85"/>
      <point x="122" y="-91" type="curve"/>
      <point x="105" y="-55" type="line"/>
    </contour>
  </outline>
</glyph>
<glyph name="eth" format="1">
  <advance width="483"/>
  <unicode hex="00F0"/>
  <outline>
    <contour>
      <point x="434" y="301" type="curve" smooth="yes"/>
      <point x="434" y="105"/>
      <point x="331" y="-12"/>
      <point x="174" y="-12" type="curve" smooth="yes"/>
      <point x="64" y="-12"/>
      <point x="-2" y="74"/>
      <point x="-2" y="172" type="curve" smooth="yes"/>
      <point x="-2" y="307"/>
      <point x="94" y="429"/>
      <point x="205" y="429" type="curve" smooth="yes"/>
      <point x="247" y="429"/>
      <point x="276" y="411"/>
      <point x="290" y="394" type="curve"/>
      <point x="288" y="437"/>
      <point x="275" y="488"/>
      <point x="251" y="538" type="curve"/>
      <point x="152" y="498" type="line"/>
      <point x="115" y="569" type="line"/>
      <point x="210" y="609" type="line"/>
      <point x="188" y="640"/>
      <point x="162" y="669"/>
      <point x="133" y="694" type="curve"/>
      <point x="190" y="755" type="line"/>
      <point x="237" y="726"/>
      <point x="276" y="690"/>
      <point x="309" y="650" type="curve"/>
      <point x="406" y="691" type="line"/>
      <point x="441" y="617" type="line"/>
      <point x="357" y="582" type="line"/>
      <point x="412" y="488"/>
      <point x="434" y="383"/>
    </contour>
    <contour>
      <point x="292" y="237" type="curve" smooth="yes"/>
      <point x="295" y="292"/>
      <point x="277" y="324"/>
      <point x="232" y="324" type="curve" smooth="yes"/>
      <point x="179" y="324"/>
      <point x="139" y="269"/>
      <point x="136" y="196" type="curve" smooth="yes"/>
      <point x="133" y="142"/>
      <point x="151" y="105"/>
      <point x="196" y="105" type="curve" smooth="yes"/>
      <point x="257" y="105"/>
      <point x="288" y="165"/>
    </contour>
  </outline>
</glyph>
<glyph name="oslash" format="1">
  <advance width="499"/>
  <unicode hex="00F8"/>
  <outline>
    <contour>
      <point x="473" y="400" type="line"/>
      <point x="473" y="400"/>
      <point x="430" y="362"/>
      <point x="430" y="361" type="curve"/>
      <point x="448" y="333"/>
      <point x="458" y="299"/>
      <point x="458" y="262" type="curve" smooth="yes"/>
      <point x="458" y="101"/>
      <point x="337" y="-12"/>
      <point x="196" y="-12" type="curve" smooth="yes"/>
      <point x="144" y="-12"/>
      <point x="100" y="3"/>
      <point x="66" y="29" type="curve"/>
      <point x="14" y="-17" type="line"/>
      <point x="-31" y="33" type="line"/>
      <point x="-31" y="33"/>
      <point x="22" y="81"/>
      <point x="22" y="80" type="curve"/>
      <point x="6" y="109"/>
      <point x="-3" y="142"/>
      <point x="-3" y="178" type="curve" smooth="yes"/>
      <point x="-3" y="317"/>
      <point x="111" y="447"/>
      <point x="261" y="447" type="curve" smooth="yes"/>
      <point x="308" y="447"/>
      <point x="350" y="433"/>
      <point x="382" y="410" type="curve"/>
      <point x="383" y="410"/>
      <point x="428" y="452"/>
      <point x="428" y="452" type="curve"/>
    </contour>
    <contour>
      <point x="320" y="244" type="curve" smooth="yes"/>
      <point x="320" y="300"/>
      <point x="292" y="331"/>
      <point x="245" y="331" type="curve" smooth="yes"/>
      <point x="186" y="331"/>
      <point x="135" y="268"/>
      <point x="135" y="192" type="curve" smooth="yes"/>
      <point x="135" y="139"/>
      <point x="161" y="103"/>
      <point x="210" y="103" type="curve" smooth="yes"/>
      <point x="275" y="103"/>
      <point x="320" y="171"/>
    </contour>
  </outline>
</glyph>
<glyph name="dotlessi" format="1">
  <advance width="243"/>
  <unicode hex="0131"/>
  <outline>
    <contour>
      <point x="208" y="435" type="line"/>
      <point x="132" y="0" type="line"/>
      <point x="-14" y="0" type="line"/>
      <point x="62" y="435" type="line"/>
    </contour>
  </outline>
</glyph>
<glyph name="Lslash" format="1">
  <advance width="515"/>
  <unicode hex="0141"/>
  <outline>
    <contour>
      <point x="419" y="393" type="line"/>
      <point x="233" y="335" type="line"/>
      <point x="197" y="130" type="line"/>
      <point x="448" y="130" type="line"/>
      <point x="425" y="0" type="line"/>
      <point x="20" y="0" type="line"/>
      <point x="70" y="283" type="line"/>
      <point x="30" y="271" type="line"/>
      <point x="-6" y="379" type="line"/>
      <point x="92" y="409" type="line"/>
      <point x="149" y="730" type="line"/>
      <point x="303" y="730" type="line"/>
      <point x="255" y="460" type="line"/>
      <point x="385" y="500" type="line"/>
    </contour>
  </outline>
</glyph>
<glyph name="lslash" format="1">
  <advance width="288"/>
  <unicode hex="0142"/>
  <outline>
    <contour>
      <point x="323" y="357" type="line"/>
      <point x="218" y="325" type="line"/>
      <point x="161" y="0" type="line"/>
      <point x="14" y="0" type="line"/>
      <point x="63" y="277" type="line"/>
      <point x="23" y="265" type="line"/>
      <point x="-9" y="378" type="line"/>
      <point x="86" y="407" type="line"/>
      <point x="143" y="730" type="line"/>
      <point x="290" y="730" type="line"/>
      <point x="241" y="454" type="line"/>
      <point x="290" y="469" type="line"/>
    </contour>
  </outline>
</glyph>
<glyph name="OE" format="1">
  <advance width="1084"/>
  <unicode hex="0152"/>
  <outline>
    <contour>
      <point x="1087" y="730" type="line"/>
      <point x="1064" y="601" type="line"/>
      <point x="805" y="601" type="line"/>
      <point x="774" y="425" type="line"/>
      <point x="1014" y="425" type="line"/>
      <point x="992" y="296" type="line"/>
      <point x="752" y="296" type="line"/>
      <point x="722" y="129" type="line"/>
      <point x="996" y="129" type="line"/>
      <point x="973" y="0" type="line"/>
      <point x="569" y="0" type="line"/>
      <point x="583" y="82" type="line"/>
      <point x="528" y="25"/>
      <point x="438" y="-9"/>
      <point x="357" y="-9" type="curve" smooth="yes"/>
      <point x="167" y="-9"/>
      <point x="31" y="112"/>
      <point x="31" y="305" type="curve" smooth="yes"/>
      <point x="31" y="568"/>
      <point x="234" y="742"/>
      <point x="465" y="742" type="curve" smooth="yes"/>
      <point x="563" y="742"/>
      <point x="647" y="699"/>
      <point x="682" y="650" type="curve"/>
      <point x="696" y="730" type="line"/>
    </contour>
    <contour>
      <point x="632" y="419" type="curve" smooth="yes"/>
      <point x="632" y="528"/>
      <point x="576" y="607"/>
      <point x="446" y="607" type="curve" smooth="yes"/>
      <point x="293" y="607"/>
      <point x="191" y="464"/>
      <point x="191" y="323" type="curve" smooth="yes"/>
      <point x="191" y="203"/>
      <point x="259" y="124"/>
      <point x="381" y="124" type="curve" smooth="yes"/>
      <point x="525" y="124"/>
      <point x="632" y="263"/>
    </contour>
  </outline>
</glyph>
<glyph name="oe" format="1">
  <advance width="800"/>
  <unicode hex="0153"/>
  <outline>
    <contour>
      <point x="747" y="268" type="curve" smooth="yes"/>
      <point x="747" y="243"/>
      <point x="745" y="215"/>
      <point x="739" y="192" type="curve"/>
      <point x="445" y="192" type="line"/>
      <point x="445" y="188"/>
      <point x="446" y="184"/>
      <point x="446" y="181" type="curve" smooth="yes"/>
      <point x="450" y="119"/>
      <point x="484" y="89"/>
      <point x="538" y="89" type="curve" smooth="yes"/>
      <point x="589" y="89"/>
      <point x="637" y="109"/>
      <point x="675" y="138" type="curve"/>
      <point x="725" y="60" type="line"/>
      <point x="673" y="18"/>
      <point x="608" y="-12"/>
      <point x="522" y="-12" type="curve" smooth="yes"/>
      <point x="452" y="-12"/>
      <point x="394" y="11"/>
      <point x="361" y="56" type="curve"/>
      <point x="320" y="16"/>
      <point x="259" y="-12"/>
      <point x="196" y="-12" type="curve" smooth="yes"/>
      <point x="79" y="-12"/>
      <point x="-3" y="67"/>
      <point x="-3" y="181" type="curve" smooth="yes"/>
      <point x="-3" y="321"/>
      <point x="111" y="447"/>
      <point x="260" y="447" type="curve" smooth="yes"/>
      <point x="321" y="447"/>
      <point x="377" y="420"/>
      <point x="405" y="379" type="curve"/>
      <point x="438" y="417"/>
      <point x="499" y="447"/>
      <point x="562" y="447" type="curve" smooth="yes"/>
      <point x="669" y="447"/>
      <point x="747" y="379"/>
    </contour>
    <contour>
      <point x="620" y="267" type="line"/>
      <point x="626" y="311"/>
      <point x="609" y="353"/>
      <point x="556" y="353" type="curve" smooth="yes"/>
      <point x="513" y="353"/>
      <point x="475" y="322"/>
      <point x="458" y="267" type="curve"/>
    </contour>
    <contour>
      <point x="320" y="244" type="curve" smooth="yes"/>
      <point x="320" y="300"/>
      <point x="292" y="331"/>
      <point x="245" y="331" type="curve" smooth="yes"/>
      <point x="186" y="331"/>
      <point x="135" y="269"/>
      <point x="135" y="192" type="curve" smooth="yes"/>
      <point x="135" y="139"/>
      <point x="161" y="103"/>
      <point x="210" y="103" type="curve" smooth="yes"/>
      <point x="278" y="103"/>
      <point x="320" y="171"/>
    </contour>
  </outline>
</glyph>
<glyph name="florin" format="1">
  <advance width="344"/>
  <unicode hex="0192"/>
  <outline>
    <contour>
      <point x="382" y="731" type="curve"/>
      <point x="353" y="617" type="line"/>
      <point x="343" y="618"/>
      <point x="331" y="620"/>
      <point x="320" y="620" type="curve" smooth="yes"/>
      <point x="294" y="620"/>
      <point x="282" y="598"/>
      <point x="271" y="541" type="curve" smooth="yes"/>
      <point x="249" y="430" type="line"/>
      <point x="315" y="430" type="line"/>
      <point x="291" y="319" type="line"/>
      <point x="225" y="319" type="line"/>
      <point x="153" y="-22" type="line" smooth="yes"/>
      <point x="132" y="-122"/>
      <point x="80" y="-179"/>
      <point x="-6" y="-179" type="curve" smooth="yes"/>
      <point x="-31" y="-179"/>
      <point x="-83" y="-178"/>
      <point x="-93" y="-173" type="curve"/>
      <point x="-63" y="-55" type="line"/>
      <point x="-57" y="-56"/>
      <point x="-44" y="-58"/>
      <point x="-32" y="-58" type="curve" smooth="yes"/>
      <point x="-6" y="-58"/>
      <point x="5" y="-35"/>
      <point x="17" y="22" type="curve" smooth="yes"/>
      <point x="79" y="319" type="line"/>
      <point x="30" y="319" type="line"/>
      <point x="54" y="430" type="line"/>
      <point x="103" y="430" type="line"/>
      <point x="134" y="578" type="line" smooth="yes"/>
      <point x="155" y="680"/>
      <point x="211" y="737"/>
      <point x="293" y="737" type="curve" smooth="yes"/>
      <point x="331" y="737"/>
      <point x="368" y="736"/>
    </contour>
  </outline>
</glyph>
<glyph name="circumflex" format="1">
  <advance width="500"/>
  <unicode hex="02C6"/>
  <outline>
    <contour>
      <point x="429" y="493" type="line"/>
      <point x="320" y="493" type="line"/>
      <point x="282" y="570" type="line"/>
      <point x="218" y="493" type="line"/>
      <point x="106" y="493" type="line"/>
      <point x="241" y="653" type="line"/>
      <point x="349" y="653" type="line"/>
    </contour>
  </outline>
</glyph>
<glyph name="caron" format="1">
  <advance width="500"/>
  <unicode hex="02C7"/>
  <outline>
    <contour>
      <point x="458" y="653" type="line"/>
      <point x="322" y="493" type="line"/>
      <point x="214" y="493" type="line"/>
      <point x="134" y="653" type="line"/>
      <point x="246" y="653" type="line"/>
      <point x="283" y="577" type="line"/>
      <point x="347" y="653" type="line"/>
    </contour>
  </outline>
</glyph>
<glyph name="breve" format="1">
  <advance width="500"/>
  <unicode hex="02D8"/>
  <outline>
    <contour>
      <point x="453" y="645" type="line"/>
      <point x="426" y="543"/>
      <point x="353" y="492"/>
      <point x="269" y="492" type="curve" smooth="yes"/>
      <point x="186" y="492"/>
      <point x="131" y="543"/>
      <point x="141" y="645" type="curve"/>
      <point x="225" y="645" type="line"/>
      <point x="226" y="608"/>
      <point x="244" y="576"/>
      <point x="284" y="576" type="curve" smooth="yes"/>
      <point x="324" y="576"/>
      <point x="353" y="610"/>
      <point x="368" y="645" type="curve"/>
    </contour>
  </outline>
</glyph>
<glyph name="dotaccent" format="1">
  <advance width="500"/>
  <unicode hex="02D9"/>
  <outline>
    <contour>
      <point x="353" y="622" type="line"/>
      <point x="330" y="493" type="line"/>
      <point x="207" y="493" type="line"/>
      <point x="230" y="622" type="line"/>
    </contour>
  </outline>
</glyph>
<glyph name="ring" format="1">
  <advance width="500"/>
  <unicode hex="02DA"/>
  <outline>
    <contour>
      <point x="413" y="617" type="curve" smooth="yes"/>
      <point x="413" y="546"/>
      <point x="357" y="490"/>
      <point x="287" y="490" type="curve" smooth="yes"/>
      <point x="217" y="490"/>
      <point x="161" y="546"/>
      <point x="161" y="617" type="curve" smooth="yes"/>
      <point x="161" y="687"/>
      <point x="217" y="743"/>
      <point x="287" y="743" type="curve" smooth="yes"/>
      <point x="357" y="743"/>
      <point x="413" y="687"/>
    </contour>
    <contour>
      <point x="339" y="617" type="curve" smooth="yes"/>
      <point x="339" y="646"/>
      <point x="316" y="669"/>
      <point x="287" y="669" type="curve" smooth="yes"/>
      <point x="258" y="669"/>
      <point x="235" y="646"/>
      <point x="235" y="617" type="curve" smooth="yes"/>
      <point x="235" y="588"/>
      <point x="258" y="564"/>
      <point x="287" y="564" type="curve" smooth="yes"/>
      <point x="316" y="564"/>
      <point x="339" y="588"/>
    </contour>
  </outline>
</glyph>
<glyph name="ogonek" format="1">
  <advance width="500"/>
  <unicode hex="02DB"/>
  <outline>
    <contour>
      <point x="257" y="15" type="line"/>
      <point x="176" y="-35"/>
      <point x="154" y="-66"/>
      <point x="152" y="-93" type="curve" smooth="yes"/>
      <point x="151" y="-117"/>
      <point x="168" y="-128"/>
      <point x="188" y="-128" type="curve" smooth="yes"/>
      <point x="210" y="-128"/>
      <point x="227" y="-122"/>
      <point x="252" y="-107" type="curve"/>
      <point x="281" y="-152" type="line"/>
      <point x="246" y="-177"/>
      <point x="213" y="-189"/>
      <point x="171" y="-189" type="curve" smooth="yes"/>
      <point x="108" y="-189"/>
      <point x="54" y="-156"/>
      <point x="58" y="-100" type="curve" smooth="yes"/>
      <point x="61" y="-62"/>
      <point x="98" y="-18"/>
      <point x="172" y="15" type="curve"/>
    </contour>
  </outline>
</glyph>
<glyph name="tilde" format="1">
  <advance width="500"/>
  <unicode hex="02DC"/>
  <outline>
    <contour>
      <point x="451" y="628" type="line"/>
      <point x="437" y="545"/>
      <point x="392" y="491"/>
      <point x="324" y="491" type="curve" smooth="yes"/>
      <point x="299" y="491"/>
      <point x="275" y="506"/>
      <point x="258" y="517" type="curve" smooth="yes"/>
      <point x="241" y="527"/>
      <point x="227" y="537"/>
      <point x="212" y="537" type="curve" smooth="yes"/>
      <point x="197" y="537"/>
      <point x="183" y="523"/>
      <point x="180" y="493" type="curve"/>
      <point x="97" y="493" type="line"/>
      <point x="110" y="576"/>
      <point x="154" y="630"/>
      <point x="224" y="630" type="curve" smooth="yes"/>
      <point x="247" y="630"/>
      <point x="271" y="616"/>
      <point x="289" y="605" type="curve" smooth="yes"/>
      <point x="306" y="595"/>
      <point x="320" y="584"/>
      <point x="335" y="584" type="curve" smooth="yes"/>
      <point x="350" y="584"/>
      <point x="364" y="597"/>
      <point x="367" y="628" type="curve"/>
    </contour>
  </outline>
</glyph>
<glyph name="hungarumlaut" format="1">
  <advance width="500"/>
  <unicode hex="02DD"/>
  <outline>
    <contour>
      <point x="481" y="653" type="line"/>
      <point x="374" y="493" type="line"/>
      <point x="256" y="493" type="line"/>
      <point x="363" y="653" type="line"/>
    </contour>
    <contour>
      <point x="315" y="653" type="line"/>
      <point x="207" y="493" type="line"/>
      <point x="89" y="493" type="line"/>
      <point x="195" y="653" type="line"/>
    </contour>
  </outline>
</glyph>
<glyph name="endash" format="1">
  <advance width="486"/>
  <unicode hex="2013"/>
  <outline>
    <contour>
      <point x="438" y="307" type="line"/>
      <point x="415" y="180" type="line"/>
      <point x="6" y="180" type="line"/>
      <point x="28" y="307" type="line"/>
    </contour>
  </outline>
</glyph>
<glyph name="emdash" format="1">
  <advance width="756"/>
  <unicode hex="2014"/>
  <outline>
    <contour>
      <point x="709" y="307" type="line"/>
      <point x="686" y="180" type="line"/>
      <point x="6" y="180" type="line"/>
      <point x="29" y="307" type="line"/>
    </contour>
  </outline>
</glyph>
<glyph name="quoteleft" format="1">
  <advance width="239"/>
  <unicode hex="2018"/>
  <unicode hex="02BB"/>
  <outline>
    <contour>
      <point x="276" y="706" type="line"/>
      <point x="257" y="680"/>
      <point x="236" y="636"/>
      <point x="228" y="592" type="curve" smooth="yes"/>
      <point x="204" y="457" type="line"/>
      <point x="51" y="457" type="line"/>
      <point x="68" y="553" type="line" smooth="yes"/>
      <point x="81" y="626"/>
      <point x="142" y="698"/>
      <point x="196" y="739" type="curve"/>
    </contour>
  </outline>
</glyph>
<glyph name="quoteright" format="1">
  <advance width="239"/>
  <unicode hex="2019"/>
  <unicode hex="02BC"/>
  <outline>
    <contour>
      <point x="267" y="730" type="line"/>
      <point x="251" y="635" type="line" smooth="yes"/>
      <point x="238" y="561"/>
      <point x="176" y="489"/>
      <point x="123" y="449" type="curve"/>
      <point x="42" y="481" type="line"/>
      <point x="62" y="507"/>
      <point x="83" y="552"/>
      <point x="91" y="596" type="curve" smooth="yes"/>
      <point x="115" y="730" type="line"/>
    </contour>
  </outline>
</glyph>
<glyph name="quotesinglbase" format="1">
  <advance width="239"/>
  <unicode hex="201A"/>
  <outline>
    <contour>
      <point x="162" y="64" type="line" smooth="yes"/>
      <point x="157" y="-15"/>
      <point x="101" y="-84"/>
      <point x="51" y="-122" type="curve"/>
      <point x="-35" y="-89" type="line"/>
      <point x="-18" y="-63"/>
      <point x="0" y="-20"/>
      <point x="4" y="25" type="curve" smooth="yes"/>
      <point x="16" y="159" type="line"/>
      <point x="168" y="159" type="line"/>
    </contour>
  </outline>
</glyph>
<glyph name="quotedblleft" format="1">
  <advance width="444"/>
  <unicode hex="201C"/>
  <outline>
    <contour>
      <point x="481" y="706" type="line"/>
      <point x="462" y="680"/>
      <point x="441" y="636"/>
      <point x="433" y="592" type="curve" smooth="yes"/>
      <point x="409" y="457" type="line"/>
      <point x="256" y="457" type="line"/>
      <point x="273" y="553" type="line" smooth="yes"/>
      <point x="286" y="626"/>
      <point x="347" y="698"/>
      <point x="401" y="739" type="curve"/>
    </contour>
    <contour>
      <point x="276" y="706" type="line"/>
      <point x="257" y="680"/>
      <point x="236" y="636"/>
      <point x="228" y="592" type="curve" smooth="yes"/>
      <point x="204" y="457" type="line"/>
      <point x="51" y="457" type="line"/>
      <point x="68" y="553" type="line" smooth="yes"/>
      <point x="81" y="626"/>
      <point x="142" y="698"/>
      <point x="196" y="739" type="curve"/>
    </contour>
  </outline>
</glyph>
<glyph name="quotedblright" format="1">
  <advance width="444"/>
  <unicode hex="201D"/>
  <outline>
    <contour>
      <point x="473" y="730" type="line"/>
      <point x="456" y="635" type="line" smooth="yes"/>
      <point x="443" y="561"/>
      <point x="382" y="489"/>
      <point x="328" y="449" type="curve"/>
      <point x="248" y="481" type="line"/>
      <point x="268" y="507"/>
      <point x="289" y="552"/>
      <point x="297" y="596" type="curve" smooth="yes"/>
      <point x="321" y="730" type="line"/>
    </contour>
    <contour>
      <point x="267" y="730" type="line"/>
      <point x="251" y="635" type="line" smooth="yes"/>
      <point x="238" y="561"/>
      <point x="176" y="489"/>
      <point x="123" y="449" type="curve"/>
      <point x="42" y="481" type="line"/>
      <point x="62" y="507"/>
      <point x="83" y="552"/>
      <point x="91" y="596" type="curve" smooth="yes"/>
      <point x="115" y="730" type="line"/>
    </contour>
  </outline>
</glyph>
<glyph name="quotedblbase" format="1">
  <advance width="444"/>
  <unicode hex="201E"/>
  <outline>
    <contour>
      <point x="368" y="64" type="line" smooth="yes"/>
      <point x="363" y="-15"/>
      <point x="307" y="-84"/>
      <point x="257" y="-122" type="curve"/>
      <point x="170" y="-89" type="line"/>
      <point x="187" y="-63"/>
      <point x="206" y="-20"/>
      <point x="210" y="25" type="curve" smooth="yes"/>
      <point x="222" y="159" type="line"/>
      <point x="374" y="159" type="line"/>
    </contour>
    <contour>
      <point x="162" y="64" type="line" smooth="yes"/>
      <point x="157" y="-15"/>
      <point x="101" y="-84"/>
      <point x="51" y="-122" type="curve"/>
      <point x="-35" y="-89" type="line"/>
      <point x="-18" y="-63"/>
      <point x="0" y="-20"/>
      <point x="4" y="25" type="curve" smooth="yes"/>
      <point x="16" y="159" type="line"/>
      <point x="168" y="159" type="line"/>
    </contour>
  </outline>
</glyph>
<glyph name="dagger" format="1">
  <advance width="540"/>
  <unicode hex="2020"/>
  <outline>
    <contour>
      <point x="539" y="482" type="line"/>
      <point x="517" y="352" type="line"/>
      <point x="341" y="352" type="line"/>
      <point x="306" y="158" type="line"/>
      <point x="230" y="-179" type="line"/>
      <point x="114" y="-179" type="line"/>
      <point x="157" y="158" type="line"/>
      <point x="192" y="352" type="line"/>
      <point x="17" y="352" type="line"/>
      <point x="39" y="482" type="line"/>
      <point x="214" y="482" type="line"/>
      <point x="258" y="730" type="line"/>
      <point x="407" y="730" type="line"/>
      <point x="363" y="482" type="line"/>
    </contour>
  </outline>
</glyph>
<glyph name="daggerdbl" format="1">
  <advance width="540"/>
  <unicode hex="2021"/>
  <outline>
    <contour>
      <point x="313" y="198" type="line"/>
      <point x="488" y="198" type="line"/>
      <point x="466" y="68" type="line"/>
      <point x="291" y="68" type="line"/>
      <point x="247" y="-180" type="line"/>
      <point x="98" y="-180" type="line"/>
      <point x="142" y="68" type="line"/>
      <point x="-34" y="68" type="line"/>
      <point x="-12" y="198" type="line"/>
      <point x="164" y="198" type="line"/>
      <point x="192" y="352" type="line"/>
      <point x="17" y="352" type="line"/>
      <point x="39" y="482" type="line"/>
      <point x="214" y="482" type="line"/>
      <point x="258" y="730" type="line"/>
      <point x="407" y="730" type="line"/>
      <point x="363" y="482" type="line"/>
      <point x="539" y="482" type="line"/>
      <point x="517" y="352" type="line"/>
      <point x="341" y="352" type="line"/>
    </contour>
  </outline>
</glyph>
<glyph name="ellipsis" format="1">
  <advance width="704"/>
  <unicode hex="2026"/>
  <outline>
    <contour>
      <point x="617" y="144" type="line"/>
      <point x="591" y="0" type="line"/>
      <point x="448" y="0" type="line"/>
      <point x="474" y="144" type="line"/>
    </contour>
    <contour>
      <point x="385" y="144" type="line"/>
      <point x="359" y="0" type="line"/>
      <point x="216" y="0" type="line"/>
      <point x="242" y="144" type="line"/>
    </contour>
    <contour>
      <point x="153" y="144" type="line"/>
      <point x="127" y="0" type="line"/>
      <point x="-16" y="0" type="line"/>
      <point x="10" y="144" type="line"/>
    </contour>
  </outline>
</glyph>
<glyph name="perthousand" format="1">
  <advance width="1126"/>
  <unicode hex="2030"/>
  <outline>
    <contour>
      <point x="371" y="589" type="curve" smooth="yes"/>
      <point x="371" y="454"/>
      <point x="284" y="357"/>
      <point x="188" y="356" type="curve" smooth="yes"/>
      <point x="111" y="355"/>
      <point x="48" y="407"/>
      <point x="48" y="513" type="curve" smooth="yes"/>
      <point x="48" y="637"/>
      <point x="133" y="742"/>
      <point x="230" y="742" type="curve" smooth="yes"/>
      <point x="316" y="742"/>
      <point x="371" y="685"/>
    </contour>
    <contour>
      <point x="738" y="730" type="line"/>
      <point x="162" y="0" type="line"/>
      <point x="40" y="0" type="line"/>
      <point x="616" y="730" type="line"/>
    </contour>
    <contour>
      <point x="1083" y="220" type="curve" smooth="yes"/>
      <point x="1083" y="86"/>
      <point x="996" y="-11"/>
      <point x="900" y="-12" type="curve" smooth="yes"/>
      <point x="823" y="-12"/>
      <point x="760" y="38"/>
      <point x="760" y="145" type="curve" smooth="yes"/>
      <point x="760" y="268"/>
      <point x="845" y="373"/>
      <point x="941" y="373" type="curve" smooth="yes"/>
      <point x="1028" y="373"/>
      <point x="1083" y="316"/>
    </contour>
    <contour>
      <point x="729" y="220" type="curve" smooth="yes"/>
      <point x="729" y="86"/>
      <point x="643" y="-11"/>
      <point x="547" y="-12" type="curve" smooth="yes"/>
      <point x="470" y="-12"/>
      <point x="406" y="38"/>
      <point x="406" y="145" type="curve" smooth="yes"/>
      <point x="406" y="268"/>
      <point x="492" y="373"/>
      <point x="588" y="373" type="curve" smooth="yes"/>
      <point x="675" y="373"/>
      <point x="729" y="316"/>
    </contour>
    <contour>
      <point x="269" y="581" type="curve" smooth="yes"/>
      <point x="269" y="633"/>
      <point x="252" y="659"/>
      <point x="224" y="659" type="curve" smooth="yes"/>
      <point x="182" y="659"/>
      <point x="149" y="587"/>
      <point x="149" y="518" type="curve" smooth="yes"/>
      <point x="149" y="467"/>
      <point x="164" y="439"/>
      <point x="193" y="439" type="curve" smooth="yes"/>
      <point x="240" y="439"/>
      <point x="269" y="514"/>
    </contour>
    <contour>
      <point x="981" y="212" type="curve" smooth="yes"/>
      <point x="981" y="264"/>
      <point x="964" y="290"/>
      <point x="936" y="290" type="curve" smooth="yes"/>
      <point x="893" y="290"/>
      <point x="860" y="219"/>
      <point x="860" y="149" type="curve" smooth="yes"/>
      <point x="860" y="98"/>
      <point x="876" y="70"/>
      <point x="905" y="70" type="curve" smooth="yes"/>
      <point x="952" y="70"/>
      <point x="981" y="145"/>
    </contour>
    <contour>
      <point x="627" y="212" type="curve" smooth="yes"/>
      <point x="627" y="264"/>
      <point x="611" y="290"/>
      <point x="583" y="290" type="curve" smooth="yes"/>
      <point x="540" y="290"/>
      <point x="507" y="219"/>
      <point x="507" y="149" type="curve" smooth="yes"/>
      <point x="507" y="98"/>
      <point x="523" y="70"/>
      <point x="552" y="70" type="curve" smooth="yes"/>
      <point x="599" y="70"/>
      <point x="627" y="145"/>
    </contour>
  </outline>
</glyph>
<glyph name="guilsinglleft" format="1">
  <advance width="239"/>
  <unicode hex="2039"/>
  <outline>
    <contour>
      <point x="204" y="397" type="line"/>
      <point x="182" y="270" type="line"/>
      <point x="95" y="218" type="line"/>
      <point x="164" y="166" type="line"/>
      <point x="141" y="39" type="line"/>
      <point x="-4" y="156" type="line"/>
      <point x="19" y="280" type="line"/>
    </contour>
  </outline>
</glyph>
<glyph name="guilsinglright" format="1">
  <advance width="239"/>
  <unicode hex="203A"/>
  <outline>
    <contour>
      <point x="198" y="280" type="line"/>
      <point x="176" y="156" type="line"/>
      <point x="-11" y="39" type="line"/>
      <point x="11" y="166" type="line"/>
      <point x="98" y="218" type="line"/>
      <point x="30" y="270" type="line"/>
      <point x="52" y="397" type="line"/>
    </contour>
  </outline>
</glyph>
<glyph name="Euro" format="1">
  <advance width="654"/>
  <unicode hex="20AC"/>
  <outline>
    <contour>
      <point x="666" y="591" type="curve"/>
      <point x="534" y="522" type="line"/>
      <point x="516" y="567"/>
      <point x="489" y="609"/>
      <point x="429" y="609" type="curve" smooth="yes"/>
      <point x="349" y="609"/>
      <point x="298" y="532"/>
      <point x="276" y="436" type="curve"/>
      <point x="453" y="436" type="line"/>
      <point x="446" y="391" type="line"/>
      <point x="266" y="391" type="line"/>
      <point x="263" y="373"/>
      <point x="260" y="359"/>
      <point x="259" y="342" type="curve"/>
      <point x="439" y="342" type="line"/>
      <point x="432" y="297" type="line"/>
      <point x="254" y="297" type="line"/>
      <point x="254" y="290"/>
      <point x="254" y="284"/>
      <point x="254" y="277" type="curve" smooth="yes"/>
      <point x="253" y="192"/>
      <point x="281" y="121"/>
      <point x="353" y="121" type="curve" smooth="yes"/>
      <point x="415" y="121"/>
      <point x="456" y="159"/>
      <point x="496" y="213" type="curve"/>
      <point x="599" y="142" type="line"/>
      <point x="524" y="32"/>
      <point x="444" y="-12"/>
      <point x="335" y="-12" type="curve" smooth="yes"/>
      <point x="167" y="-12"/>
      <point x="96" y="102"/>
      <point x="96" y="271" type="curve" smooth="yes"/>
      <point x="96" y="279"/>
      <point x="96" y="289"/>
      <point x="97" y="297" type="curve"/>
      <point x="7" y="297" type="line"/>
      <point x="14" y="342" type="line"/>
      <point x="101" y="342" type="line"/>
      <point x="103" y="359"/>
      <point x="105" y="374"/>
      <point x="108" y="391" type="curve"/>
      <point x="22" y="391" type="line"/>
      <point x="29" y="436" type="line"/>
      <point x="118" y="436" type="line"/>
      <point x="164" y="616"/>
      <point x="279" y="742"/>
      <point x="442" y="742" type="curve" smooth="yes"/>
      <point x="560" y="742"/>
      <point x="632" y="685"/>
    </contour>
  </outline>
</glyph>
<glyph name="uni2117" format="1">
  <advance width="844"/>
  <unicode hex="2117"/>
  <outline>
    <contour>
      <point x="799" y="365" type="curve" smooth="yes"/>
      <point x="799" y="157"/>
      <point x="630" y="-12"/>
      <point x="422" y="-12" type="curve" smooth="yes"/>
      <point x="214" y="-12"/>
      <point x="45" y="157"/>
      <point x="45" y="365" type="curve" smooth="yes"/>
      <point x="45" y="573"/>
      <point x="214" y="742"/>
      <point x="422" y="742" type="curve" smooth="yes"/>
      <point x="630" y="742"/>
      <point x="799" y="573"/>
    </contour>
    <contour>
      <point x="740" y="364" type="curve" smooth="yes"/>
      <point x="740" y="543"/>
      <point x="601" y="686"/>
      <point x="422" y="686" type="curve" smooth="yes"/>
      <point x="243" y="686"/>
      <point x="104" y="543"/>
      <point x="104" y="364" type="curve" smooth="yes"/>
      <point x="104" y="185"/>
      <point x="243" y="43"/>
      <point x="422" y="43" type="curve" smooth="yes"/>
      <point x="601" y="43"/>
      <point x="740" y="185"/>
    </contour>
    <contour>
      <point x="601" y="447" type="curve" smooth="yes"/>
      <point x="601" y="365"/>
      <point x="540" y="306"/>
      <point x="456" y="306" type="curve" smooth="yes"/>
      <point x="389" y="306" type="line"/>
      <point x="389" y="146" type="line"/>
      <point x="291" y="146" type="line"/>
      <point x="291" y="584" type="line"/>
      <point x="450" y="584" type="line" smooth="yes"/>
      <point x="543" y="584"/>
      <point x="601" y="529"/>
    </contour>
    <contour>
      <point x="506" y="448" type="curve" smooth="yes"/>
      <point x="506" y="485"/>
      <point x="482" y="505"/>
      <point x="437" y="505" type="curve" smooth="yes"/>
      <point x="388" y="505" type="line"/>
      <point x="388" y="387" type="line"/>
      <point x="439" y="387" type="line" smooth="yes"/>
      <point x="484" y="387"/>
      <point x="506" y="409"/>
    </contour>
  </outline>
</glyph>
<glyph name="trademark" format="1">
  <advance width="848"/>
  <unicode hex="2122"/>
  <outline>
    <contour>
      <point x="822" y="292" type="line"/>
      <point x="724" y="292" type="line"/>
      <point x="724" y="576" type="line"/>
      <point x="613" y="410" type="line"/>
      <point x="571" y="410" type="line"/>
      <point x="458" y="573" type="line"/>
      <point x="458" y="292" type="line"/>
      <point x="363" y="292" type="line"/>
      <point x="363" y="730" type="line"/>
      <point x="454" y="730" type="line"/>
      <point x="592" y="532" type="line"/>
      <point x="724" y="730" type="line"/>
      <point x="822" y="730" type="line"/>
    </contour>
    <contour>
      <point x="308" y="650" type="line"/>
      <point x="219" y="650" type="line"/>
      <point x="219" y="292" type="line"/>
      <point x="124" y="292" type="line"/>
      <point x="124" y="650" type="line"/>
      <point x="37" y="650" type="line"/>
      <point x="37" y="730" type="line"/>
      <point x="308" y="730" type="line"/>
    </contour>
  </outline>
</glyph>
<glyph name="minus" format="1">
  <advance width="575"/>
  <unicode hex="2212"/>
  <outline>
    <contour>
      <point x="21" y="244" type="line"/>
      <point x="42" y="364" type="line"/>
      <point x="543" y="364" type="line"/>
      <point x="522" y="244" type="line"/>
    </contour>
  </outline>
</glyph>
<glyph name="radical" format="1">
  <advance width="559"/>
  <unicode hex="221A"/>
  <outline>
    <contour>
      <point x="611" y="730" type="line"/>
      <point x="247" y="0" type="line"/>
      <point x="110" y="0" type="line"/>
      <point x="9" y="365" type="line"/>
      <point x="155" y="365" type="line"/>
      <point x="191" y="226" type="line"/>
      <point x="193" y="211"/>
      <point x="204" y="173"/>
      <point x="204" y="173" type="curve"/>
      <point x="204" y="173"/>
      <point x="220" y="210"/>
      <point x="227" y="224" type="curve" smooth="yes"/>
      <point x="466" y="730" type="line"/>
    </contour>
  </outline>
</glyph>
<glyph name="f_f" format="1">
  <advance width="585"/>
  <unicode hex="FB00"/>
  <outline>
    <contour>
      <point x="637" y="726" type="curve"/>
      <point x="615" y="616" type="line"/>
      <point x="610" y="618"/>
      <point x="595" y="620"/>
      <point x="585" y="620" type="curve" smooth="yes"/>
      <point x="554" y="620"/>
      <point x="540" y="594"/>
      <point x="530" y="539" type="curve" smooth="yes"/>
      <point x="511" y="435" type="line"/>
      <point x="583" y="435" type="line"/>
      <point x="564" y="324" type="line"/>
      <point x="492" y="324" type="line"/>
      <point x="404" y="-179" type="line"/>
      <point x="259" y="-179" type="line"/>
      <point x="347" y="324" type="line"/>
      <point x="203" y="324" type="line"/>
      <point x="115" y="-179" type="line"/>
      <point x="-30" y="-179" type="line"/>
      <point x="58" y="324" type="line"/>
      <point x="9" y="324" type="line"/>
      <point x="28" y="435" type="line"/>
      <point x="77" y="435" type="line"/>
      <point x="103" y="579" type="line" smooth="yes"/>
      <point x="121" y="681"/>
      <point x="180" y="732"/>
      <point x="256" y="732" type="curve" smooth="yes"/>
      <point x="274" y="732"/>
      <point x="338" y="731"/>
      <point x="348" y="726" type="curve"/>
      <point x="326" y="616" type="line"/>
      <point x="320" y="618"/>
      <point x="306" y="620"/>
      <point x="296" y="620" type="curve" smooth="yes"/>
      <point x="265" y="620"/>
      <point x="251" y="594"/>
      <point x="241" y="539" type="curve" smooth="yes"/>
      <point x="222" y="435" type="line"/>
      <point x="366" y="435" type="line"/>
      <point x="392" y="579" type="line" smooth="yes"/>
      <point x="410" y="681"/>
      <point x="469" y="732"/>
      <point x="545" y="732" type="curve" smooth="yes"/>
      <point x="563" y="732"/>
      <point x="627" y="731"/>
    </contour>
  </outline>
</glyph>
<glyph name="bullet" format="1">
  <advance width="457"/>
  <outline>
    <contour>
      <point x="395" y="379" type="curve" smooth="yes"/>
      <point x="395" y="286"/>
      <point x="322" y="213"/>
      <point x="229" y="213" type="curve" smooth="yes"/>
      <point x="136" y="213"/>
      <point x="62" y="286"/>
      <point x="62" y="379" type="curve" smooth="yes"/>
      <point x="62" y="472"/>
      <point x="136" y="546"/>
      <point x="229" y="546" type="curve" smooth="yes"/>
      <point x="322" y="546"/>
      <point x="395" y="472"/>
    </contour>
  </outline>
</glyph>
<glyph name="f_l" format="1">
  <advance width="539"/>
  <outline>
    <contour>
      <point x="557" y="730" type="line"/>
      <point x="428" y="0" type="line"/>
      <point x="282" y="0" type="line"/>
      <point x="411" y="730" type="line"/>
    </contour>
    <contour>
      <point x="348" y="726" type="curve"/>
      <point x="326" y="616" type="line"/>
      <point x="320" y="618"/>
      <point x="306" y="620"/>
      <point x="296" y="620" type="curve" smooth="yes"/>
      <point x="265" y="620"/>
      <point x="251" y="594"/>
      <point x="241" y="539" type="curve" smooth="yes"/>
      <point x="222" y="435" type="line"/>
      <point x="294" y="435" type="line"/>
      <point x="275" y="324" type="line"/>
      <point x="203" y="324" type="line"/>
      <point x="115" y="-179" type="line"/>
      <point x="-30" y="-179" type="line"/>
      <point x="58" y="324" type="line"/>
      <point x="9" y="324" type="line"/>
      <point x="28" y="435" type="line"/>
      <point x="77" y="435" type="line"/>
      <point x="103" y="579" type="line" smooth="yes"/>
      <point x="121" y="681"/>
      <point x="180" y="732"/>
      <point x="256" y="732" type="curve" smooth="yes"/>
      <point x="274" y="732"/>
      <point x="338" y="731"/>
    </contour>
  </outline>
</glyph>
<glyph name="macron" format="1">
  <advance width="500"/>
  <outline>
    <contour>
      <point x="439" y="581" type="line"/>
      <point x="424" y="493" type="line"/>
      <point x="115" y="493" type="line"/>
      <point x="131" y="581" type="line"/>
    </contour>
  </outline>
</glyph>
<glyph name="onesuperior" format="1">
  <advance width="328"/>
  <outline>
    <contour>
      <point x="103" y="279" type="line"/>
      <point x="152" y="555" type="line"/>
      <point x="134" y="541"/>
      <point x="104" y="532"/>
      <point x="71" y="530" type="curve"/>
      <point x="93" y="651" type="line"/>
      <point x="153" y="659"/>
      <point x="178" y="670"/>
      <point x="217" y="729" type="curve"/>
      <point x="322" y="729" type="line"/>
      <point x="242" y="279" type="line"/>
    </contour>
  </outline>
</glyph>
<glyph name="registered" format="1">
  <advance width="844"/>
  <outline>
    <contour>
      <point x="799" y="365" type="curve" smooth="yes"/>
      <point x="799" y="157"/>
      <point x="630" y="-12"/>
      <point x="422" y="-12" type="curve" smooth="yes"/>
      <point x="214" y="-12"/>
      <point x="45" y="157"/>
      <point x="45" y="365" type="curve" smooth="yes"/>
      <point x="45" y="573"/>
      <point x="214" y="742"/>
      <point x="422" y="742" type="curve" smooth="yes"/>
      <point x="630" y="742"/>
      <point x="799" y="573"/>
    </contour>
    <contour>
      <point x="740" y="364" type="curve" smooth="yes"/>
      <point x="740" y="543"/>
      <point x="601" y="686"/>
      <point x="422" y="686" type="curve" smooth="yes"/>
      <point x="243" y="686"/>
      <point x="104" y="543"/>
      <point x="104" y="364" type="curve" smooth="yes"/>
      <point x="104" y="185"/>
      <point x="243" y="43"/>
      <point x="422" y="43" type="curve" smooth="yes"/>
      <point x="601" y="43"/>
      <point x="740" y="185"/>
    </contour>
    <contour>
      <point x="620" y="155" type="line"/>
      <point x="507" y="155" type="line"/>
      <point x="373" y="336" type="line"/>
      <point x="373" y="155" type="line"/>
      <point x="276" y="155" type="line"/>
      <point x="276" y="593" type="line"/>
      <point x="438" y="593" type="line" smooth="yes"/>
      <point x="528" y="593"/>
      <point x="586" y="539"/>
      <point x="586" y="462" type="curve" smooth="yes"/>
      <point x="586" y="396"/>
      <point x="539" y="346"/>
      <point x="482" y="338" type="curve"/>
    </contour>
    <contour>
      <point x="491" y="458" type="curve" smooth="yes"/>
      <point x="491" y="488"/>
      <point x="466" y="514"/>
      <point x="428" y="514" type="curve" smooth="yes"/>
      <point x="372" y="514" type="line"/>
      <point x="372" y="396" type="line"/>
      <point x="423" y="396" type="line" smooth="yes"/>
      <point x="465" y="396"/>
      <point x="491" y="418"/>
    </contour>
  </outline>
</glyph>
<glyph name="threesuperior" format="1">
  <advance width="423"/>
  <outline>
    <contour>
      <point x="407" y="621" type="curve" smooth="yes"/>
      <point x="407" y="558"/>
      <point x="354" y="522"/>
      <point x="319" y="516" type="curve"/>
      <point x="361" y="513"/>
      <point x="389" y="477"/>
      <point x="389" y="435" type="curve" smooth="yes"/>
      <point x="389" y="373"/>
      <point x="341" y="264"/>
      <point x="192" y="264" type="curve" smooth="yes"/>
      <point x="111" y="264"/>
      <point x="69" y="288"/>
      <point x="41" y="310" type="curve"/>
      <point x="115" y="400" type="line"/>
      <point x="134" y="385"/>
      <point x="164" y="374"/>
      <point x="195" y="374" type="curve" smooth="yes"/>
      <point x="240" y="374"/>
      <point x="265" y="395"/>
      <point x="265" y="431" type="curve" smooth="yes"/>
      <point x="265" y="458"/>
      <point x="244" y="463"/>
      <point x="208" y="463" type="curve" smooth="yes"/>
      <point x="174" y="463" type="line"/>
      <point x="190" y="553" type="line"/>
      <point x="223" y="553" type="line" smooth="yes"/>
      <point x="257" y="553"/>
      <point x="283" y="562"/>
      <point x="283" y="596" type="curve" smooth="yes"/>
      <point x="283" y="611"/>
      <point x="274" y="631"/>
      <point x="237" y="631" type="curve" smooth="yes"/>
      <point x="205" y="631"/>
      <point x="179" y="612"/>
      <point x="164" y="592" type="curve"/>
      <point x="85" y="657" type="line"/>
      <point x="105" y="686"/>
      <point x="162" y="741"/>
      <point x="252" y="741" type="curve" smooth="yes"/>
      <point x="387" y="741"/>
      <point x="407" y="664"/>
    </contour>
  </outline>
</glyph>
